<svg width="101" height="24" viewBox="0 0 101 24" fill="none" xmlns="http://www.w3.org/2000/svg">
<path d="M10.9867 0H13.0082V0.967032L12.7445 4.13187L11.3382 4.21978L9.75617 4.57142L8.34987 5.27472L7.55883 5.80219L6.76779 6.50549L5.97675 7.56043L5.3615 8.7912L5.00992 9.93406L4.83414 10.989V13.011L5.09782 14.4176L5.62518 15.8242L6.41622 17.0549L7.29515 18.022L8.43777 18.8132L9.75617 19.4286L11.2504 19.7802L12.393 19.8681L14.2387 19.6044L15.2934 19.2527L16.3482 18.7253L17.4029 17.9341L18.106 17.1428L18.8092 15.9121L19.0729 15.1209L15.2934 15.033L15.718 14.019L16.0183 12.9175L16.2185 12.1164L16.3482 11.2527H24.6101V12.6593L24.3465 14.6813L23.9949 16L23.5554 17.1428L22.9402 18.3736L21.8855 19.7802L21.0065 20.7472L19.776 21.7143L18.6334 22.4176L17.1392 23.1209L15.8208 23.5604L14.2387 23.9121L13.5356 24H10.8988L9.3167 23.7362L7.55883 23.2088L6.06464 22.5055L5.00992 21.8022L4.13099 21.0989L3.25206 20.3077L2.37312 19.2527L1.58208 18.022L0.878934 16.6154L0.439467 15.2967L0.0878934 13.6264L0 12.7472V11.1648L0.26368 9.31867L0.703147 7.73626L1.3184 6.32967L2.19733 4.92307L3.16416 3.78022L4.0431 2.9011L5.3615 1.93406L6.76779 1.14286L8.08619 0.615384L9.75617 0.175824L10.9867 0Z" fill="#EA0D20"/>
<path d="M14.6781 0.263696L15.4692 0.351609L17.0512 0.879081L18.5454 1.58238L19.8638 2.4615L21.0064 3.42853L21.7096 4.13183L22.6764 5.45051L23.5553 7.12083L23.6432 7.56039H18.3696L18.1938 7.47248L18.4575 6.68127L19.4244 4.57139L19.5123 4.30765V3.69227L19.1607 2.98897L18.7212 2.63732L18.3696 2.4615H17.4907L16.7876 2.81315L15.8207 3.956L15.2055 4.74721L14.4144 4.48347L14.3265 4.39556L14.5023 1.67029L14.6781 0.263696Z" fill="#EA0D20"/>
<path d="M17.7544 3.95602H18.0181L17.7544 4.74723L16.2603 7.91206L14.854 10.9011L14.3266 12.0439L14.4145 13.2747L14.1508 14.0659L13.5356 14.7692L12.7445 15.1208H11.6898L10.8109 14.6813L10.3714 14.1538L10.1077 13.6263L10.0198 12.7472L10.2835 11.956L10.8109 11.2527L11.6898 10.8132L12.2172 10.6373L13.0082 9.6703L14.0629 8.43953L14.854 7.4725L16.0845 5.978L17.0513 4.83514L17.7544 3.95602Z" fill="white"/>
<path d="M28.373 19.8176V4.07846H39.4413V7.5214H32.6466V10.2266H38.7649V13.6695H32.6466V19.8176H28.373Z" fill="white"/>
<path d="M56.2628 11.948C56.2628 13.7002 55.922 15.1783 55.2405 16.3823C54.559 17.5812 53.6392 18.4906 52.4811 19.1105C51.3231 19.7254 50.0318 20.0328 48.6072 20.0328C47.1725 20.0328 45.876 19.7228 44.718 19.1029C43.565 18.4778 42.6478 17.5658 41.9663 16.367C41.2899 15.163 40.9517 13.69 40.9517 11.948C40.9517 10.1958 41.2899 8.72027 41.9663 7.5214C42.6478 6.31739 43.565 5.40799 44.718 4.79318C45.876 4.17325 47.1725 3.86328 48.6072 3.86328C50.0318 3.86328 51.3231 4.17325 52.4811 4.79318C53.6392 5.40799 54.559 6.31739 55.2405 7.5214C55.922 8.72027 56.2628 10.1958 56.2628 11.948ZM51.8662 11.948C51.8662 11.0053 51.7407 10.2112 51.4896 9.56564C51.2436 8.91496 50.8773 8.42312 50.3905 8.09009C49.9088 7.75195 49.3144 7.58288 48.6072 7.58288C47.9001 7.58288 47.3031 7.75195 46.8163 8.09009C46.3347 8.42312 45.9683 8.91496 45.7172 9.56564C45.4712 10.2112 45.3482 11.0053 45.3482 11.948C45.3482 12.8907 45.4712 13.6874 45.7172 14.3381C45.9683 14.9836 46.3347 15.4755 46.8163 15.8136C47.3031 16.1467 47.9001 16.3132 48.6072 16.3132C49.3144 16.3132 49.9088 16.1467 50.3905 15.8136C50.8773 15.4755 51.2436 14.9836 51.4896 14.3381C51.7407 13.6874 51.8662 12.8907 51.8662 11.948Z" fill="white"/>
<path d="M58.2401 19.8176V4.07846H65.0348C66.2031 4.07846 67.2254 4.29109 68.1016 4.71633C68.9778 5.14157 69.6594 5.75382 70.1462 6.55307C70.633 7.35232 70.8764 8.3104 70.8764 9.4273C70.8764 10.5545 70.6253 11.5048 70.1231 12.2785C69.6261 13.0521 68.9266 13.6362 68.0247 14.0307C67.128 14.4252 66.0801 14.6224 64.8811 14.6224H60.8227V11.3025H64.0202C64.5224 11.3025 64.9502 11.241 65.3038 11.118C65.6625 10.9899 65.9366 10.7876 66.1262 10.5109C66.3209 10.2342 66.4183 9.87304 66.4183 9.4273C66.4183 8.97644 66.3209 8.61012 66.1262 8.32833C65.9366 8.04142 65.6625 7.83136 65.3038 7.69815C64.9502 7.55982 64.5224 7.49065 64.0202 7.49065H62.5137V19.8176H58.2401ZM67.4636 12.5936L71.399 19.8176H66.7565L62.9134 12.5936H67.4636Z" fill="white"/>
<path d="M87.3942 9.98063H83.0592C83.0284 9.62199 82.9464 9.29666 82.8132 9.00462C82.6851 8.71259 82.5057 8.46154 82.2751 8.25148C82.0497 8.0363 81.7755 7.87235 81.4527 7.75963C81.1299 7.6418 80.7635 7.58288 80.3536 7.58288C79.6362 7.58288 79.029 7.75707 78.5319 8.10546C78.04 8.45386 77.6659 8.95339 77.4097 9.60406C77.1586 10.2547 77.0331 11.0361 77.0331 11.948C77.0331 12.9112 77.1612 13.7182 77.4174 14.3688C77.6787 15.0144 78.0554 15.5011 78.5473 15.829C79.0392 16.1518 79.6311 16.3132 80.3228 16.3132C80.7174 16.3132 81.071 16.2645 81.3835 16.1671C81.6961 16.0647 81.9677 15.9187 82.1983 15.7291C82.4289 15.5395 82.6159 15.3115 82.7594 15.0451C82.908 14.7736 83.0079 14.4687 83.0592 14.1306L87.3942 14.1613C87.343 14.8274 87.1559 15.5062 86.8331 16.1979C86.5103 16.8844 86.0517 17.5197 85.4573 18.1038C84.868 18.6827 84.1378 19.149 83.2667 19.5025C82.3956 19.856 81.3835 20.0328 80.2306 20.0328C78.7856 20.0328 77.4891 19.7228 76.3413 19.1029C75.1986 18.4829 74.2942 17.571 73.6281 16.367C72.967 15.163 72.6365 13.69 72.6365 11.948C72.6365 10.1958 72.9747 8.72027 73.6511 7.5214C74.3275 6.31739 75.2396 5.40799 76.3874 4.79318C77.5353 4.17325 78.8163 3.86328 80.2306 3.86328C81.2247 3.86328 82.1394 3.99905 82.9746 4.27059C83.8098 4.54213 84.5426 4.9392 85.1729 5.46178C85.8032 5.97925 86.3105 6.61711 86.6948 7.37538C87.0791 8.13364 87.3122 9.00206 87.3942 9.98063Z" fill="white"/>
<path d="M89.3331 19.8176V4.07846H100.678V7.5214H93.6067V10.2266H100.094V13.6695H93.6067V16.3746H100.647V19.8176H89.3331Z" fill="white"/>
</svg>

