<svg xmlns="http://www.w3.org/2000/svg" xmlns:xlink="http://www.w3.org/1999/xlink" width="64" height="64" viewBox="0 0 16.933333 16.933333"><defs><linearGradient id="b"><stop/><stop offset="1" stop-opacity="0"/></linearGradient><linearGradient id="a"><stop offset="0" stop-color="#bd9212"/><stop offset="1" stop-color="#eabb2e"/></linearGradient><linearGradient gradientTransform="matrix(.635 0 0 .635 -245.897 -47.36)" gradientUnits="userSpaceOnUse" x2="0" y2="521.798" y1="533.798" id="p" xlink:href="#a"/><linearGradient gradientUnits="userSpaceOnUse" x2="23" y2="19" x1="9" y1="5" id="o" xlink:href="#b" gradientTransform="matrix(.635 0 0 .635 -1.693 280.172)"/><linearGradient id="e"><stop offset="0"/><stop offset="1" stop-opacity=".384"/></linearGradient><linearGradient id="d"><stop offset="0" stop-color="#f7f7f7"/><stop offset="1" stop-color="#f7f7f7" stop-opacity=".392"/></linearGradient><linearGradient id="c" y1="11" x1="17" y2="41" gradientUnits="userSpaceOnUse" x2="44" gradientTransform="translate(0 1004.36)"><stop/><stop offset="1" stop-opacity="0"/></linearGradient><linearGradient id="i" y1="40" y2="6" gradientUnits="userSpaceOnUse" x2="0" gradientTransform="matrix(.94118 0 0 .91176 -13.09 1004.448)"><stop stop-color="#b1b1b1"/><stop offset="1" stop-color="#ddd"/></linearGradient><linearGradient gradientTransform="translate(13 990.362)" xlink:href="#c" id="j" y1="38" x1="23" y2="58" gradientUnits="userSpaceOnUse" x2="39"/><linearGradient id="k" y1="1052.45" y2="1012.95" gradientUnits="userSpaceOnUse" x2="0" gradientTransform="translate(13 -13.998)"><stop stop-color="#f2f2f2"/><stop offset="1" stop-color="#fff"/></linearGradient><linearGradient gradientTransform="rotate(180 46.5 515.681)" x2="49" gradientUnits="userSpaceOnUse" y2="20.735" x1="49.088" y1="26.497" id="m"><stop/><stop stop-opacity="0" stop-color="#655c6f" offset="1"/></linearGradient><linearGradient gradientTransform="translate(13 990.362)" xlink:href="#d" id="n" x1="34.237" y1="10.71" x2="30.045" y2="5.495" gradientUnits="userSpaceOnUse"/><linearGradient gradientTransform="translate(4 990.362)" xlink:href="#e" id="l" x1="13" y1="44.006" x2="13" y2="3.172" gradientUnits="userSpaceOnUse"/><linearGradient id="f"><stop offset="0" stop-color="#fff"/><stop offset="1" stop-color="#fff" stop-opacity=".488"/></linearGradient><linearGradient gradientTransform="translate(30)" gradientUnits="userSpaceOnUse" x2="42.646" y2="44.054" x1="22.54" y1="23.775" id="h"><stop stop-color="#292c2f"/><stop stop-opacity="0" stop-color="#292c2f" offset="1"/></linearGradient><linearGradient id="g" y1="525.28" x1="408.65" y2="533.28" x2="416.65" gradientUnits="userSpaceOnUse" gradientTransform="translate(-.081 -.48)"><stop stop-opacity=".065"/><stop offset="1" stop-opacity="0"/></linearGradient></defs><g transform="matrix(.26458 0 0 .26458 0 -261.504)"><rect ry=".992" width="42" x="11" y="994.362" rx=".992" height="52" style="isolation:auto;mix-blend-mode:normal" color="#000" overflow="visible" fill="url(#i)" fill-rule="evenodd"/><path d="M51 1027.362l-38 17 1.786 1.963 38.21.037v-48l-2-2z" opacity=".2" fill="url(#j)" fill-rule="evenodd"/><path d="M13 996.362v48h38v-48z" fill="url(#k)" fill-rule="evenodd"/><path opacity=".437" fill="#1b1b1b" fill-rule="evenodd" d="M13 1043.362h38v1H13z"/><path style="isolation:auto;mix-blend-mode:normal;marker:none" color="#000" overflow="visible" opacity=".082" fill="url(#l)" d="M16 996.362h1v47h-1z"/><path d="M41 1006.362l10 10v-10z" opacity=".2" fill="url(#m)" fill-rule="evenodd"/><path style="isolation:auto;mix-blend-mode:normal;marker:none" color="#000" overflow="visible" opacity=".373" fill="#fff" d="M13 996.362h3v47h-3z"/><path fill="#bcbcbc" fill-rule="evenodd" d="M19 1003.362h8v1h-8zM28 1003.362h5v1h-5zM19 1005.362h6v1h-6zM26 1005.362h3v1h-3zM19 1007.362h4.03v1H19zM24 1007.362h7v1h-7zM19 999.362h5v1h-5zM30 999.362h6v1h-6zM19 1001.362h7v1h-7zM27 1001.362h3v1h-3zM19 1016.362h7v-1h-7zM27 1016.362h3v-1h-3zM19 1014.362h4.03v-1H19zM24 1014.362h8v-1h-8zM19 1012.362h10v-1H19zM30 1012.362h5v-1h-5zM19 1019.362h10v1H19zM19 1021.362h7v1h-7zM27 1021.362h4v1h-4zM19 1023.362h4v1h-4zM19 1025.362h7v1h-7zM30 1005.362h4v1h-4zM25 999.362h4v1h-4zM31 1001.362h7v1h-7zM34 1003.362h10v1H34zM35 1005.362h9v1h-9zM33 1014.362h5v-1h-5zM30 1019.362h4v1h-4zM24 1023.362h8v1h-8zM27 1025.362h7v1h-7z"/><path fill="#bcbcbc" fill-rule="evenodd" d="M27 1016.362h3v-1h-3zM36 1012.362h2v-1h-2zM35 1020.362h5v-1h-5zM32 1021.362h6v1h-6zM37 999.362h4v1h-4zM39 1001.362h3v1h-3z"/><path d="M51 1006.362l-10-10v10z" fill="url(#n)" fill-rule="evenodd"/><path d="M41 996.362l10 10v-10z" fill="#fdfdfd" fill-rule="evenodd"/><path fill="#bcbcbc" fill-rule="evenodd" d="M39 1012.362h5v-1h-5zM45 1012.362h2v-1h-2zM39 1014.362h8v-1h-8zM41 1020.362h6v-1h-6zM39 1021.362h5v1h-5zM45 1021.362h2v1h-2zM33 1023.362h4v1h-4zM38 1023.362h9v1h-9zM19 1032.362h4.03v-1H19zM24 1032.362h8v-1h-8zM19 1030.362h10v-1H19zM30 1030.362h5v-1h-5zM33 1032.362h5v-1h-5zM36 1030.362h2v-1h-2zM39 1030.362h5v-1h-5zM45 1030.362h2v-1h-2zM39 1032.362h8v-1h-8zM19 1033.362h7v1h-7zM27 1033.362h4v1h-4zM19 1035.362h4v1h-4zM19 1037.362h7v1h-7zM24 1035.362h8v1h-8zM27 1037.362h7v1h-7zM32 1033.362h6v1h-6zM39 1033.362h5v1h-5zM45 1033.362h2v1h-2zM33 1035.362h4v1h-4zM38 1035.362h9v1h-9z"/></g><path d="M8.467 283.348v.634h-.635l-.635.635-.635.636v2.54h-1.27v4.445l2.38 2.38h5.822v-6.878l-3.757-3.757z" opacity=".2" fill="url(#o)" fill-rule="evenodd" transform="translate(0 -280.067)"/><path d="M8.467 283.348a1.9 1.9 0 0 0-1.905 1.904v2.541h-1.27v4.444h6.35v-4.444h-1.27v-2.54a1.9 1.9 0 0 0-1.905-1.905zm0 .635c.791 0 1.27.346 1.27 1.27v2.54H7.196v-2.541c0-.923.48-1.27 1.27-1.27zm-2.54 4.444h5.08v3.175h-5.08zm3.598.459c-.262 0-.466.094-.613.282-.146.188-.22.45-.22.786 0 .338.073.6.219.787.146.186.35.28.614.28a.961.961 0 0 0 .455-.114v-.285a.75.75 0 0 1-.218.128.662.662 0 0 1-.237.045.452.452 0 0 1-.407-.21c-.09-.14-.135-.35-.135-.631 0-.282.045-.493.135-.633.09-.14.226-.209.407-.209.079 0 .158.015.236.044a.77.77 0 0 1 .219.128V289a.942.942 0 0 0-.455-.113zm-2.208.037v.235h.525v1.151c0 .187-.026.314-.078.383-.052.068-.143.103-.275.103a.72.72 0 0 1-.277-.056.943.943 0 0 1-.258-.168v.325c.094.043.185.074.272.094.088.02.175.03.263.03.227 0 .39-.053.486-.16.097-.108.146-.292.146-.55v-1.387z" fill="url(#p)" transform="translate(0 -280.067)"/></svg>