<?xml version="1.0" encoding="UTF-8" standalone="no"?>
<!-- Created with Inkscape (http://www.inkscape.org/) -->

<svg
   width="1200"
   height="630"
   viewBox="0 0 317.49999 166.68751"
   version="1.1"
   id="svg8"
   inkscape:version="1.2.2 (b0a8486541, 2022-12-01)"
   sodipodi:docname="jekyll-esbuild-og-image.svg"
   inkscape:export-filename="jekyll-esbuild-og-image.png"
   inkscape:export-xdpi="288"
   inkscape:export-ydpi="288"
   xml:space="preserve"
   xmlns:inkscape="http://www.inkscape.org/namespaces/inkscape"
   xmlns:sodipodi="http://sodipodi.sourceforge.net/DTD/sodipodi-0.dtd"
   xmlns="http://www.w3.org/2000/svg"
   xmlns:svg="http://www.w3.org/2000/svg"
   xmlns:rdf="http://www.w3.org/1999/02/22-rdf-syntax-ns#"
   xmlns:cc="http://creativecommons.org/ns#"
   xmlns:dc="http://purl.org/dc/elements/1.1/"><defs
     id="defs2"><rect
       x="372.23435"
       y="243.00393"
       width="858.40295"
       height="180.88661"
       id="rect523" /><rect
       x="153.28264"
       y="380.47099"
       width="967.55254"
       height="200.87434"
       id="rect1509" /><rect
       x="352.77575"
       y="194.13992"
       width="394.04676"
       height="208.44142"
       id="rect1397" /><linearGradient
       id="linear-gradient"
       x1="-2.413"
       y1="32.987"
       x2="-2.401"
       y2="32.984"
       gradientTransform="matrix(561.015,0,0,-1011.593,1365.643,33384.042)"
       gradientUnits="userSpaceOnUse"><stop
         offset="0"
         stop-color="#919191"
         id="stop356" /><stop
         offset="1"
         stop-color="#ffffff"
         id="stop358" /></linearGradient><linearGradient
       id="linear-gradient-2"
       x1="-4.202"
       y1="33.569"
       x2="-4.191"
       y2="33.566"
       gradientTransform="matrix(373.691,0,0,-614.108,1582.079,20634.253)"
       gradientUnits="userSpaceOnUse"><stop
         offset="0"
         stop-color="#900"
         id="stop361" /><stop
         offset="1"
         stop-color="#e80000"
         id="stop363" /></linearGradient></defs><sodipodi:namedview
     id="base"
     pagecolor="#ffffff"
     bordercolor="#666666"
     borderopacity="1.0"
     inkscape:pageopacity="0.0"
     inkscape:pageshadow="2"
     inkscape:zoom="0.41778227"
     inkscape:cx="727.65175"
     inkscape:cy="342.28355"
     inkscape:document-units="px"
     inkscape:current-layer="layer1"
     showgrid="false"
     units="px"
     inkscape:window-width="1366"
     inkscape:window-height="696"
     inkscape:window-x="0"
     inkscape:window-y="0"
     inkscape:window-maximized="1"
     inkscape:pagecheckerboard="0"
     inkscape:showpageshadow="2"
     inkscape:deskcolor="#d1d1d1"
     showguides="true" /><metadata
     id="metadata5"><rdf:RDF><cc:Work
         rdf:about=""><dc:format>image/svg+xml</dc:format><dc:type
           rdf:resource="http://purl.org/dc/dcmitype/StillImage" /></cc:Work></rdf:RDF></metadata><g
     inkscape:label="Layer 1"
     inkscape:groupmode="layer"
     id="layer1"
     transform="translate(0,-130.31248)"><rect
       style="opacity:1;fill:#030712;fill-opacity:1;stroke:none;stroke-width:0.52916664;stroke-miterlimit:4;stroke-dasharray:none"
       id="rect10"
       width="317.5"
       height="166.68748"
       x="0"
       y="130.31245" /><g
       id="g1476"
       transform="translate(48.784902,32.52678)"><g
         id="g1407"
         transform="translate(76.09843,-67.733334)"><g
           id="g354"
           transform="matrix(0.16933334,0,0,0.16933334,33.866667,206.51248)"><circle
             cx="100"
             cy="100"
             r="100"
             fill="#ffcf00"
             id="circle342" /><path
             d="M 47.5,52.5 95,100 47.5,147.5 m 60,-95 47.5,47.5 -47.5,47.5"
             fill="none"
             stroke="#191919"
             stroke-width="24"
             id="path344" /></g><g
           id="g413"
           transform="matrix(1.8121184,0,0,1.8121184,-14.784808,194.42088)"><path
             d="m 16.884,2.57 a 0.326,0.326 0 0 0 0,0.161 4.485,4.485 0 0 1 -0.027,1.648 L 8.6,25.857 a 3.0773164,3.0773164 0 0 0 5.748,2.2 L 22.605,6.576 A 5.661,5.661 0 0 1 23.69,5.344 0.863,0.863 0 0 0 23.797,5.223 V 5.21 C 23.797,5.197 23.81,5.197 23.81,5.183 24.024,4.634 22.644,3.589 20.742,2.852 18.84,2.115 17.112,1.967 16.9,2.53 a 0.059,0.059 0 0 0 -0.016,0.04 z"
             style="opacity:0.5;isolation:isolate"
             id="path370" /><path
             d="m 16.643,2.383 a 0.326,0.326 0 0 0 0,0.161 4.482,4.482 0 0 1 -0.027,1.648 L 8.362,25.669 a 3.0773164,3.0773164 0 0 0 5.748,2.2 L 22.364,6.389 A 5.665,5.665 0 0 1 23.449,5.156 0.865,0.865 0 0 0 23.556,5.035 V 5.022 c 0,-0.013 0.013,-0.013 0.013,-0.027 C 23.784,4.446 22.4,3.4 20.5,2.664 18.6,1.928 16.869,1.78 16.655,2.342 a 0.049,0.049 0 0 1 -0.013,0.04 z"
             style="fill:url(#linear-gradient)"
             id="path372" /><path
             d="M 19.242,12.1 13.28,27.585 A 2.217,2.217 0 0 1 10.426,28.831 2.268,2.268 0 0 1 9.1,25.977 l 3.805,-9.9 a 4.356,4.356 0 0 1 1.407,-1.313 c 0.938,-0.549 1.7,-0.429 2.733,-0.884 a 8.088,8.088 0 0 0 2.2,-1.782 z"
             style="fill:url(#linear-gradient-2)"
             id="path374" /><path
             d="M 22.133,4.547 C 22.252,4.237 21.397,3.619 20.224,3.166 19.051,2.713 18,2.6 17.885,2.907 c -0.115,0.307 0.736,0.928 1.909,1.381 1.173,0.453 2.221,0.569 2.339,0.259 z"
             style="fill:#333333"
             id="path376" /><path
             d="M 16.587,2.542 A 4.487,4.487 0 0 1 16.56,4.185 L 8.361,25.6 a 3.059,3.059 0 0 0 1.77,3.928 2.555,2.555 0 0 0 0.825,0.187 A 3.092,3.092 0 0 1 9.932,26.19 L 17.972,5.2 A 5.141,5.141 0 0 1 16.588,2.541 Z"
             style="opacity:0.3;isolation:isolate;fill:#ffffff"
             id="path378" /><g
             style="opacity:0.5"
             id="g390"><circle
               cx="13.952"
               cy="16.357"
               r="0.23999999"
               style="fill:#ffffff"
               id="circle380" /><circle
               cx="15.509"
               cy="18.08"
               r="0.359"
               style="fill:#ffffff"
               id="circle382" /><circle
               cx="13.126"
               cy="20.138"
               r="0.67900002"
               style="fill:#ffffff"
               id="circle384" /><circle
               cx="12.035"
               cy="21.393999"
               r="0.359"
               style="fill:#ffffff"
               id="circle386" /><circle
               cx="13.459"
               cy="24.066"
               r="0.23999999"
               style="fill:#ffffff"
               id="circle388" /></g></g></g><g
         id="g1425"
         transform="translate(-85.566095,-9.0771257)"><g
           id="g820"
           style="fill:#dc2626;fill-opacity:1"><path
             d="m 97.927429,211.35627 q -0.846667,0 -1.388534,-0.44026 -0.508,-0.47414 -0.508,-1.4224 0,-1.08374 0.541867,-1.7272 0.575733,-0.64347 1.490133,-0.64347 0.8128,0 1.354667,0.47413 0.541867,0.44027 0.541867,1.38854 0,1.3208 -0.643467,1.86266 -0.643467,0.508 -1.388533,0.508 z m -10.397067,29.66721 q -0.508,0 -1.049867,-0.1016 -0.575733,-0.0677 -0.9144,-0.16934 l 0.3048,-1.55786 q 0.270933,0.0677 0.745067,0.13546 0.440266,0.1016 0.8128,0.1016 1.659466,0 2.6416,-1.45626 0.948266,-1.4224 1.659466,-4.80907 l 3.115734,-14.69813 q 0.1016,-0.508 0.1016,-0.88054 0,-0.9144 -0.575734,-1.15146 -0.541866,-0.27094 -1.490133,-0.27094 h -0.440267 l 0.3048,-1.4224 h 6.062134 l -3.894667,18.42347 q -0.643467,3.01413 -1.693333,4.70747 -1.016,1.7272 -2.4384,2.4384 -1.4224,0.7112 -3.2512,0.7112 z"
             style="font-style:italic;font-size:128px;font-family:serif;-inkscape-font-specification:'serif Italic';text-align:center;text-anchor:middle;white-space:pre;fill:#dc2626;fill-opacity:1;stroke-width:2.11667"
             id="path771" /><path
             d="m 108.22291,233.23414 q -1.79494,0 -3.31894,-0.77893 -1.49013,-0.77893 -2.40453,-2.30293 -0.88053,-1.55787 -0.88053,-3.92854 0,-1.89653 0.64346,-3.92853 0.64347,-2.06587 1.9304,-3.8608 1.28694,-1.79493 3.1496,-2.91253 1.89654,-1.1176 4.3688,-1.1176 2.1336,0 3.31894,1.04986 1.18533,1.016 1.18533,2.8448 0,1.76107 -1.28693,3.31894 -1.25307,1.55786 -3.48827,2.50613 -2.20133,0.94827 -5.04613,0.94827 h -1.18534 q -0.0339,0.37253 -0.0677,0.74506 0,0.33867 0,0.67734 0,2.16746 0.94827,3.38666 0.94826,1.2192 2.77706,1.2192 1.6256,0 2.87867,-0.77893 1.28693,-0.77893 1.99813,-1.65947 0.33867,0.23707 0.33867,0.84667 0,0.74507 -0.64347,1.6256 -0.6096,0.84667 -1.89653,1.49013 -1.28693,0.6096 -3.31893,0.6096 z m -2.37067,-9.71973 q 1.99813,0 3.52213,-0.64347 1.55787,-0.67733 2.4384,-1.8288 0.9144,-1.18533 0.9144,-2.7432 0,-2.26906 -1.96426,-2.26906 -0.94827,0 -1.79494,0.67733 -0.84666,0.64347 -1.524,1.76107 -0.67733,1.08373 -1.18533,2.40453 -0.47413,1.3208 -0.74507,2.6416 z"
             style="font-style:italic;font-size:128px;font-family:serif;-inkscape-font-specification:'serif Italic';text-align:center;text-anchor:middle;white-space:pre;fill:#dc2626;fill-opacity:1;stroke-width:2.11667"
             id="path773" /><path
             d="m 134.30024,233.13254 q -1.8288,-0.0339 -3.01413,-0.33866 -1.15147,-0.3048 -1.86267,-1.04987 -0.7112,-0.74507 -1.25306,-2.09973 l -2.20134,-5.41867 -3.08186,1.96427 -1.38854,6.7056 h -3.1496 l 4.40267,-20.9296 q 0.16933,-0.67734 0.23707,-1.15147 0.0677,-0.508 0.0677,-0.64347 0,-1.016 -0.7112,-1.28693 -0.67733,-0.3048 -1.65947,-0.3048 h -0.27093 l 0.3048,-1.4224 h 6.23147 l -1.3208,6.23147 q -0.2032,0.9144 -0.54187,2.40453 -0.3048,1.49013 -0.7112,3.18347 -0.37253,1.69333 -0.74507,3.18346 -0.37253,1.49014 -0.64346,2.37067 l 5.3848,-4.6736 q 1.38853,-1.18533 1.9304,-1.86267 0.54186,-0.67733 0.54186,-1.15146 0,-0.44027 -0.33866,-0.54187 -0.3048,-0.13547 -1.15147,-0.13547 l 0.3048,-1.4224 h 7.48453 l -0.3048,1.4224 q -1.15146,0 -2.47226,0.84667 -1.3208,0.8128 -2.98027,2.30293 l -3.08187,2.8448 3.08187,6.7056 q 0.57573,1.25307 1.35467,2.06587 0.77893,0.77893 2.09973,0.77893 l -0.3048,1.4224 z"
             style="font-style:italic;font-size:128px;font-family:serif;-inkscape-font-specification:'serif Italic';text-align:center;text-anchor:middle;white-space:pre;fill:#dc2626;fill-opacity:1;stroke-width:2.11667"
             id="path775" /><path
             d="m 133.82612,241.02348 q -1.79494,0 -3.18347,-0.6096 l 0.508,-1.69334 q 0.4064,0.13547 1.016,0.23707 0.57573,0.13547 1.6256,0.13547 1.65947,0 3.048,-0.6096 1.4224,-0.57574 2.60773,-1.524 1.18534,-0.9144 2.1336,-1.99814 0.98214,-1.04986 1.7272,-2.032 l -4.4704,-14.96906 q -0.3048,-1.016 -0.84666,-1.38854 -0.508,-0.4064 -1.49014,-0.4064 h -0.33866 l 0.27093,-1.4224 h 4.94453 l 2.6416,9.144 q 0.27094,0.88054 0.57574,2.09974 0.3048,1.2192 0.54186,2.3368 0.27094,1.1176 0.3048,1.69333 h 0.1016 q 1.28694,-1.96427 2.30294,-3.9624 1.04986,-1.99813 1.65946,-3.8608 0.6096,-1.89653 0.6096,-3.42053 0,-0.7112 -0.37253,-1.25307 -0.33867,-0.57573 -1.28693,-0.57573 0,-1.2192 0.67733,-1.86267 0.7112,-0.64347 1.524,-0.64347 1.08373,0 1.69333,0.7112 0.6096,0.7112 0.6096,2.1336 0,2.6416 -1.6256,6.096 -1.6256,3.4544 -4.33493,7.58614 -1.65947,2.57386 -3.08187,4.4704 -1.38853,1.89653 -2.81093,3.11573 -1.4224,1.25307 -3.18347,1.86267 -1.7272,0.6096 -4.09786,0.6096 z"
             style="font-style:italic;font-size:128px;font-family:serif;-inkscape-font-specification:'serif Italic';text-align:center;text-anchor:middle;white-space:pre;fill:#dc2626;fill-opacity:1;stroke-width:2.11667"
             id="path777" /><path
             d="m 159.29385,233.23414 q -1.35467,0 -2.09974,-0.94826 -0.7112,-0.94827 -0.7112,-2.26907 0,-0.7112 0.13547,-1.69333 0.13547,-0.98214 0.3048,-1.96427 0.16933,-1.016 0.3048,-1.65947 l 2.77707,-13.0048 q 0.1016,-0.47413 0.13546,-0.9144 0.0677,-0.47413 0.0677,-0.6096 0,-1.016 -0.7112,-1.28693 -0.67734,-0.3048 -1.65947,-0.3048 h -0.4064 l 0.3048,-1.4224 h 6.4008 l -3.92853,18.45733 q -0.0677,0.37254 -0.2032,1.08374 -0.13547,0.7112 -0.23707,1.45626 -0.1016,0.74507 -0.1016,1.2192 0,1.7272 1.1176,1.7272 0.57573,0 1.18533,-0.23706 0.6096,-0.27094 1.25307,-0.64347 l 0.6096,0.98213 q -0.74507,0.64347 -1.99813,1.35467 -1.25307,0.67733 -2.54,0.67733 z"
             style="font-style:italic;font-size:128px;font-family:serif;-inkscape-font-specification:'serif Italic';text-align:center;text-anchor:middle;white-space:pre;fill:#dc2626;fill-opacity:1;stroke-width:2.11667"
             id="path779" /><path
             d="m 169.58934,233.23414 q -1.35466,0 -2.09973,-0.94826 -0.7112,-0.94827 -0.7112,-2.26907 0,-0.7112 0.13547,-1.69333 0.13546,-0.98214 0.3048,-1.96427 0.16933,-1.016 0.3048,-1.65947 l 2.77706,-13.0048 q 0.1016,-0.47413 0.13547,-0.9144 0.0677,-0.47413 0.0677,-0.6096 0,-1.016 -0.7112,-1.28693 -0.67733,-0.3048 -1.65946,-0.3048 h -0.4064 l 0.3048,-1.4224 h 6.4008 l -3.92854,18.45733 q -0.0677,0.37254 -0.2032,1.08374 -0.13546,0.7112 -0.23706,1.45626 -0.1016,0.74507 -0.1016,1.2192 0,1.7272 1.1176,1.7272 0.57573,0 1.18533,-0.23706 0.6096,-0.27094 1.25307,-0.64347 l 0.6096,0.98213 q -0.74507,0.64347 -1.99814,1.35467 -1.25306,0.67733 -2.54,0.67733 z"
             style="font-style:italic;font-size:128px;font-family:serif;-inkscape-font-specification:'serif Italic';text-align:center;text-anchor:middle;white-space:pre;fill:#dc2626;fill-opacity:1;stroke-width:2.11667"
             id="path781" /></g><path
           d="m 175.9563,225.14001 v -2.6416 h 8.19574 v 2.6416 z"
           id="path783"
           style="font-size:128px;-inkscape-font-specification:sans-serif;text-align:center;text-anchor:middle;white-space:pre;fill:#ffffff;stroke-width:2.11667" /><g
           id="g829"
           style="fill:#fbbf24;fill-opacity:1"><path
             d="m 195.76832,214.06561 q 3.82694,0 6.06214,2.20133 2.2352,2.16747 2.2352,6.1976 v 2.4384 h -11.92107 q 0.0677,2.1336 1.25307,3.3528 1.2192,1.2192 3.3528,1.2192 1.79493,0 3.2512,-0.33866 1.45626,-0.37254 3.01413,-1.1176 v 3.89466 q -1.35467,0.67734 -2.87867,0.98214 -1.49013,0.33866 -3.62373,0.33866 -2.77707,0 -4.91067,-1.016 -2.1336,-1.04986 -3.3528,-3.1496 -1.2192,-2.09973 -1.2192,-5.2832 0,-3.2512 1.08374,-5.3848 1.1176,-2.16746 3.08186,-3.2512 1.96427,-1.08373 4.572,-1.08373 z m 0.0339,3.58987 q -1.45627,0 -2.4384,0.94826 -0.94827,0.94827 -1.1176,2.9464 h 7.07813 q -0.0339,-1.69333 -0.88053,-2.77706 -0.84667,-1.1176 -2.6416,-1.1176 z"
             style="font-weight:bold;font-size:128px;-inkscape-font-specification:'sans-serif Bold';text-align:center;text-anchor:middle;white-space:pre;fill:#fbbf24;fill-opacity:1;stroke-width:2.11667"
             id="path785" /><path
             d="m 221.06671,227.40908 q 0,2.81093 -1.99814,4.33493 -1.96426,1.49013 -5.8928,1.49013 -1.9304,0 -3.31893,-0.27093 -1.38853,-0.23707 -2.77707,-0.8128 v -4.1656 q 1.49014,0.67733 3.21734,1.1176 1.7272,0.44027 3.048,0.44027 1.49013,0 2.09973,-0.44027 0.64347,-0.44027 0.64347,-1.15147 0,-0.47413 -0.27094,-0.84666 -0.23706,-0.37254 -1.08373,-0.84667 -0.84667,-0.47413 -2.6416,-1.2192 -1.7272,-0.74507 -2.8448,-1.45627 -1.1176,-0.74506 -1.65947,-1.76106 -0.54186,-1.04987 -0.54186,-2.60774 0,-2.57386 1.99813,-3.8608 1.99813,-1.28693 5.31707,-1.28693 1.7272,0 3.28506,0.33867 1.55787,0.33866 3.21734,1.1176 l -1.524,3.62373 q -1.35467,-0.57573 -2.57387,-0.94827 -1.2192,-0.4064 -2.47227,-0.4064 -2.2352,0 -2.2352,1.2192 0,0.44027 0.27094,0.8128 0.3048,0.33867 1.1176,0.74507 0.84666,0.4064 2.47226,1.08373 1.59174,0.64347 2.7432,1.35467 1.15147,0.67733 1.76107,1.7272 0.64347,1.016 0.64347,2.67547 z"
             style="font-weight:bold;font-size:128px;-inkscape-font-specification:'sans-serif Bold';text-align:center;text-anchor:middle;white-space:pre;fill:#fbbf24;fill-opacity:1;stroke-width:2.11667"
             id="path787" /><path
             d="m 230.04137,213.15121 q 0,1.04987 -0.0677,2.06587 -0.0677,1.016 -0.13546,1.59173 h 0.2032 q 0.74506,-1.15147 1.99813,-1.9304 1.25307,-0.8128 3.2512,-0.8128 3.11573,0 5.04613,2.4384 1.9304,2.40453 1.9304,7.112 0,4.74133 -1.96426,7.17973 -1.96427,2.4384 -5.14774,2.4384 -2.032,0 -3.21733,-0.7112 -1.15147,-0.74506 -1.89653,-1.65946 h -0.33867 l -0.84667,2.032 h -3.8608 v -25.73867 h 5.04614 z m 3.62373,4.94453 q -1.96427,0 -2.77707,1.2192 -0.77893,1.2192 -0.84666,3.72534 v 0.54186 q 0,2.67547 0.77893,4.13174 0.8128,1.4224 2.91253,1.4224 1.55787,0 2.47227,-1.4224 0.9144,-1.45627 0.9144,-4.1656 0,-2.70934 -0.94827,-4.064 -0.9144,-1.38854 -2.50613,-1.38854 z"
             style="font-weight:bold;font-size:128px;-inkscape-font-specification:'sans-serif Bold';text-align:center;text-anchor:middle;white-space:pre;fill:#fbbf24;fill-opacity:1;stroke-width:2.11667"
             id="path789" /><path
             d="m 263.40002,214.40428 v 18.4912 h -3.8608 l -0.67733,-2.37067 h -0.27093 q -0.88054,1.4224 -2.4384,2.06587 -1.524,0.64346 -3.2512,0.64346 -2.98028,0 -4.77521,-1.59173 -1.79493,-1.6256 -1.79493,-5.1816 v -12.05653 h 5.04613 v 10.80346 q 0,1.96427 0.71121,2.98027 0.7112,1.016 2.26906,1.016 2.30294,0 3.1496,-1.55787 0.84667,-1.59173 0.84667,-4.53813 v -8.70373 z"
             style="font-weight:bold;font-size:128px;-inkscape-font-specification:'sans-serif Bold';text-align:center;text-anchor:middle;white-space:pre;fill:#fbbf24;fill-opacity:1;stroke-width:2.11667"
             id="path791" /><path
             d="m 271.2232,207.15681 q 1.1176,0 1.9304,0.54186 0.8128,0.508 0.8128,1.9304 0,1.38854 -0.8128,1.93041 -0.8128,0.54186 -1.9304,0.54186 -1.15147,0 -1.96427,-0.54186 -0.77893,-0.54187 -0.77893,-1.93041 0,-1.4224 0.77893,-1.9304 0.8128,-0.54186 1.96427,-0.54186 z m 2.50613,7.24747 v 18.4912 h -5.04613 v -18.4912 z"
             style="font-weight:bold;font-size:128px;-inkscape-font-specification:'sans-serif Bold';text-align:center;text-anchor:middle;white-space:pre;fill:#fbbf24;fill-opacity:1;stroke-width:2.11667"
             id="path793" /><path
             d="m 284.05869,232.89548 h -5.04613 v -25.73867 h 5.04613 z"
             style="font-weight:bold;font-size:128px;-inkscape-font-specification:'sans-serif Bold';text-align:center;text-anchor:middle;white-space:pre;fill:#fbbf24;fill-opacity:1;stroke-width:2.11667"
             id="path795" /><path
             d="m 295.20083,233.23414 q -3.08187,0 -5.04614,-2.40453 -1.9304,-2.4384 -1.9304,-7.14587 0,-4.74133 1.96427,-7.17973 1.96426,-2.4384 5.14773,-2.4384 1.99814,0 3.28507,0.77893 1.28693,0.77894 2.032,1.9304 h 0.16933 q -0.1016,-0.54186 -0.23706,-1.55786 -0.13547,-1.04987 -0.13547,-2.1336 v -5.92667 h 5.04613 v 25.73867 h -3.8608 l -0.98213,-2.40454 h -0.2032 q -0.74507,1.15147 -1.99813,1.96427 -1.25307,0.77893 -3.2512,0.77893 z m 1.76106,-4.03013 q 2.09974,0 2.9464,-1.2192 0.84667,-1.25307 0.88054,-3.72533 v -0.54187 q 0,-2.70933 -0.84667,-4.13173 -0.8128,-1.4224 -3.048,-1.4224 -1.65947,0 -2.60773,1.45626 -0.94827,1.4224 -0.94827,4.13174 0,2.70933 0.94827,4.09786 0.94826,1.35467 2.67546,1.35467 z"
             style="font-weight:bold;font-size:128px;-inkscape-font-specification:'sans-serif Bold';text-align:center;text-anchor:middle;white-space:pre;fill:#fbbf24;fill-opacity:1;stroke-width:2.11667"
             id="path797" /></g></g></g></g></svg>
