<?xml version="1.0" encoding="UTF-8" standalone="no"?>
<!-- Created with Inkscape (http://www.inkscape.org/) -->

<svg
   xmlns:dc="http://purl.org/dc/elements/1.1/"
   xmlns:cc="http://creativecommons.org/ns#"
   xmlns:rdf="http://www.w3.org/1999/02/22-rdf-syntax-ns#"
   xmlns:svg="http://www.w3.org/2000/svg"
   xmlns="http://www.w3.org/2000/svg"
   xmlns:xlink="http://www.w3.org/1999/xlink"
   xmlns:sodipodi="http://sodipodi.sourceforge.net/DTD/sodipodi-0.dtd"
   xmlns:inkscape="http://www.inkscape.org/namespaces/inkscape"
   width="256"
   height="256"
   id="svg2"
   version="1.1"
   inkscape:version="0.48.4 r9939"
   sodipodi:docname="netchat.svg"
   inkscape:export-filename="/home/s8a/Programs/NetChat/netchat.png"
   inkscape:export-xdpi="180"
   inkscape:export-ydpi="180">
  <defs
     id="defs4">
    <linearGradient
       id="linearGradient3837">
      <stop
         id="stop3839"
         offset="0"
         style="stop-color:#2980b9;stop-opacity:1;" />
      <stop
         id="stop3843"
         offset="1"
         style="stop-color:#3498db;stop-opacity:1;" />
    </linearGradient>
    <linearGradient
       id="linearGradient3823">
      <stop
         style="stop-color:#ffffff;stop-opacity:1;"
         offset="0"
         id="stop3825" />
      <stop
         id="stop3831"
         offset="0.7323426"
         style="stop-color:#e6e6e6;stop-opacity:1" />
      <stop
         style="stop-color:#cccccc;stop-opacity:1"
         offset="1"
         id="stop3827" />
    </linearGradient>
    <linearGradient
       inkscape:collect="always"
       xlink:href="#linearGradient3837-8"
       id="linearGradient3845-9"
       x1="84.009491"
       y1="945.36517"
       x2="84.000023"
       y2="858.36139"
       gradientUnits="userSpaceOnUse" />
    <linearGradient
       id="linearGradient3837-8">
      <stop
         id="stop3839-3"
         offset="0"
         style="stop-color:#2980b9;stop-opacity:1;" />
      <stop
         id="stop3843-4"
         offset="1"
         style="stop-color:#3498db;stop-opacity:1;" />
    </linearGradient>
    <radialGradient
       inkscape:collect="always"
       xlink:href="#linearGradient3823-8"
       id="radialGradient3833-5"
       cx="23.93898"
       cy="707.70758"
       fx="23.93898"
       fy="707.70758"
       r="108.5"
       gradientTransform="matrix(-0.98462658,1.0467407,-1.0941273,-1.0292048,919.78563,1533.727)"
       gradientUnits="userSpaceOnUse" />
    <linearGradient
       id="linearGradient3823-8">
      <stop
         style="stop-color:#ffffff;stop-opacity:1;"
         offset="0"
         id="stop3825-5" />
      <stop
         id="stop3831-5"
         offset="0.7323426"
         style="stop-color:#e6e6e6;stop-opacity:1" />
      <stop
         style="stop-color:#cccccc;stop-opacity:1"
         offset="1"
         id="stop3827-5" />
    </linearGradient>
    <radialGradient
       inkscape:collect="always"
       xlink:href="#linearGradient3823"
       id="radialGradient3048"
       gradientUnits="userSpaceOnUse"
       gradientTransform="matrix(-0.98462658,1.0467407,-1.0941273,-1.0292048,919.78563,1533.727)"
       cx="23.93898"
       cy="707.70758"
       fx="23.93898"
       fy="707.70758"
       r="108.5" />
    <linearGradient
       gradientTransform="matrix(0,0.96130754,-0.96130754,0,86.77201,-6.2162139)"
       gradientUnits="userSpaceOnUse"
       xlink:href="#linearGradient4207"
       id="linearGradient4205"
       y2="40.332577"
       x2="68.881409"
       y1="40.332577"
       x1="27.271412" />
    <linearGradient
       gradientUnits="userSpaceOnUse"
       xlink:href="#linearGradient4151"
       id="linearGradient4192"
       y2="40.332577"
       x2="68.881409"
       y1="40.332577"
       x1="27.271412" />
    <filter
       id="filter4055"
       color-interpolation-filters="sRGB"
       height="1.388211"
       width="1.388211"
       y="-0.19410552"
       x="-0.19410552">
      <feGaussianBlur
         stdDeviation="5.3379019"
         id="feGaussianBlur4057" />
    </filter>
    <linearGradient
       gradientTransform="translate(-1,1)"
       gradientUnits="userSpaceOnUse"
       xlink:href="#ButtonShadow"
       id="linearGradient4031"
       y2="5.9877172"
       x2="48"
       y1="90.868095"
       x1="48" />
    <linearGradient
       gradientTransform="translate(-1,1)"
       gradientUnits="userSpaceOnUse"
       xlink:href="#ButtonShadow"
       id="linearGradient4023"
       y2="5.9877172"
       x2="48"
       y1="90.868095"
       x1="48" />
    <linearGradient
       gradientTransform="translate(-1,1)"
       gradientUnits="userSpaceOnUse"
       xlink:href="#ButtonShadow"
       id="linearGradient4009"
       y2="5.9877172"
       x2="48"
       y1="90.868095"
       x1="48" />
    <linearGradient
       gradientTransform="translate(-1,1)"
       gradientUnits="userSpaceOnUse"
       xlink:href="#ButtonShadow"
       id="linearGradient4001"
       y2="5.9877172"
       x2="48"
       y1="90.868095"
       x1="48" />
    <linearGradient
       gradientTransform="translate(0,1)"
       gradientUnits="userSpaceOnUse"
       xlink:href="#ButtonShadow"
       id="linearGradient3989"
       y2="5.9877172"
       x2="48"
       y1="90"
       x1="48" />
    <radialGradient
       gradientTransform="matrix(1.1428571,0,0,0.95238095,-6.8571426,3.428571)"
       gradientUnits="userSpaceOnUse"
       xlink:href="#linearGradient3737"
       id="radialGradient3982"
       fy="72"
       fx="48"
       r="42"
       cy="72"
       cx="48" />
    <linearGradient
       gradientUnits="userSpaceOnUse"
       xlink:href="#linearGradient3737"
       id="linearGradient3967"
       y2="64.215118"
       x2="44"
       y1="6"
       x1="44" />
    <linearGradient
       gradientUnits="userSpaceOnUse"
       xlink:href="#linearGradient4141"
       id="linearGradient3948"
       y2="5.9877172"
       x2="48"
       y1="72.190804"
       x1="48" />
    <radialGradient
       gradientTransform="matrix(1.1573129,0,0,0.99590774,-117.55102,0.19713193)"
       gradientUnits="userSpaceOnUse"
       xlink:href="#linearGradient3737"
       id="radialGradient3155"
       fy="90.171875"
       fx="48"
       r="42"
       cy="90.171875"
       cx="48" />
    <linearGradient
       gradientTransform="translate(-110,0)"
       gradientUnits="userSpaceOnUse"
       xlink:href="#linearGradient3737"
       id="linearGradient3153"
       y2="63.893143"
       x2="36.357143"
       y1="6"
       x1="36.357143" />
    <linearGradient
       gradientTransform="translate(-110,0)"
       gradientUnits="userSpaceOnUse"
       xlink:href="#linearGradient3700"
       id="linearGradient3151"
       y2="5.9877172"
       x2="48"
       y1="90"
       x1="48" />
    <clipPath
       id="clipPath3613">
      <rect
         style="fill:#ffffff;fill-opacity:1;fill-rule:nonzero;stroke:none"
         id="rect3615"
         y="6"
         x="6"
         ry="6"
         rx="6"
         height="84"
         width="84" />
    </clipPath>
    <linearGradient
       gradientUnits="userSpaceOnUse"
       xlink:href="#linearGradient3737"
       id="linearGradient3613"
       y2="138.66119"
       x2="48"
       y1="20.220806"
       x1="48" />
    <filter
       id="filter3174"
       color-interpolation-filters="sRGB">
      <feGaussianBlur
         stdDeviation="1.71"
         id="feGaussianBlur3176" />
    </filter>
    <linearGradient
       id="linearGradient3700">
      <stop
         offset="0"
         style="stop-color:#2276c5;stop-opacity:1"
         id="stop3702" />
      <stop
         offset="1"
         style="stop-color:#68baf4;stop-opacity:1"
         id="stop3704" />
    </linearGradient>
    <linearGradient
       id="linearGradient3737">
      <stop
         offset="0"
         style="stop-color:#ffffff;stop-opacity:1"
         id="stop3739" />
      <stop
         offset="1"
         style="stop-color:#ffffff;stop-opacity:0"
         id="stop3741" />
    </linearGradient>
    <linearGradient
       gradientTransform="scale(1.0058652,0.994169)"
       gradientUnits="userSpaceOnUse"
       id="ButtonShadow"
       y2="7.0165396"
       x2="45.447727"
       y1="92.539597"
       x1="45.447727">
      <stop
         offset="0"
         style="stop-color:#000000;stop-opacity:1"
         id="stop3750" />
      <stop
         offset="1"
         style="stop-color:#000000;stop-opacity:0.58823532"
         id="stop3752" />
    </linearGradient>
    <linearGradient
       gradientUnits="userSpaceOnUse"
       id="linearGradient4141"
       y2="0.99929649"
       x2="10.31979"
       y1="21"
       x1="10.31979">
      <stop
         offset="0"
         style="stop-color:#d3e0ef;stop-opacity:1"
         id="stop4143" />
      <stop
         offset="0.69528329"
         style="stop-color:#fbfcfd;stop-opacity:1"
         id="stop4147" />
      <stop
         offset="1"
         style="stop-color:#ecf2f8;stop-opacity:1"
         id="stop4145" />
    </linearGradient>
    <linearGradient
       id="linearGradient4151">
      <stop
         offset="0"
         style="stop-color:#2759a1;stop-opacity:1"
         id="stop4153" />
      <stop
         offset="0.41216215"
         style="stop-color:#477ecc;stop-opacity:1"
         id="stop4161" />
      <stop
         offset="0.76351351"
         style="stop-color:#7ba2d4;stop-opacity:1"
         id="stop4159" />
      <stop
         offset="1"
         style="stop-color:#739fcf;stop-opacity:1"
         id="stop4155" />
    </linearGradient>
    <linearGradient
       id="linearGradient4207">
      <stop
         offset="0"
         style="stop-color:#2759a1;stop-opacity:1"
         id="stop4209" />
      <stop
         offset="0.41216215"
         style="stop-color:#477ecc;stop-opacity:1"
         id="stop4211" />
      <stop
         offset="0.82499993"
         style="stop-color:#7ba2d4;stop-opacity:1"
         id="stop4213" />
      <stop
         offset="1"
         style="stop-color:#739fcf;stop-opacity:1"
         id="stop4215" />
    </linearGradient>
    <linearGradient
       inkscape:collect="always"
       xlink:href="#ButtonShadow"
       id="linearGradient4106"
       gradientUnits="userSpaceOnUse"
       gradientTransform="scale(1.0058652,0.994169)"
       x1="45.447727"
       y1="92.539597"
       x2="45.447727"
       y2="7.0165396" />
    <linearGradient
       inkscape:collect="always"
       xlink:href="#linearGradient4141"
       id="linearGradient4145"
       gradientUnits="userSpaceOnUse"
       x1="48"
       y1="72.190804"
       x2="48"
       y2="5.9877172" />
    <linearGradient
       inkscape:collect="always"
       xlink:href="#linearGradient3700"
       id="linearGradient4147"
       gradientUnits="userSpaceOnUse"
       gradientTransform="translate(-110,0)"
       x1="48"
       y1="90"
       x2="48"
       y2="5.9877172" />
    <linearGradient
       inkscape:collect="always"
       xlink:href="#linearGradient3737"
       id="linearGradient4149"
       gradientUnits="userSpaceOnUse"
       gradientTransform="translate(-110,0)"
       x1="36.357143"
       y1="6"
       x2="36.357143"
       y2="63.893143" />
    <radialGradient
       inkscape:collect="always"
       xlink:href="#linearGradient3737"
       id="radialGradient4151"
       gradientUnits="userSpaceOnUse"
       gradientTransform="matrix(1.1573129,0,0,0.99590774,-117.55102,0.19713193)"
       cx="48"
       cy="90.171875"
       fx="48"
       fy="90.171875"
       r="42" />
    <radialGradient
       inkscape:collect="always"
       xlink:href="#linearGradient3737"
       id="radialGradient4153"
       gradientUnits="userSpaceOnUse"
       gradientTransform="matrix(1.1428571,0,0,0.95238095,-6.8571426,3.428571)"
       cx="48"
       cy="72"
       fx="48"
       fy="72"
       r="42" />
    <linearGradient
       inkscape:collect="always"
       xlink:href="#linearGradient3737"
       id="linearGradient4155"
       gradientUnits="userSpaceOnUse"
       x1="44"
       y1="6"
       x2="44"
       y2="64.215118" />
    <linearGradient
       inkscape:collect="always"
       xlink:href="#linearGradient3737"
       id="linearGradient4158"
       gradientUnits="userSpaceOnUse"
       x1="44"
       y1="6"
       x2="44"
       y2="64.215118"
       gradientTransform="translate(132.9773,847.38488)" />
    <radialGradient
       inkscape:collect="always"
       xlink:href="#linearGradient3737"
       id="radialGradient4161"
       gradientUnits="userSpaceOnUse"
       gradientTransform="matrix(1.1428571,0,0,0.95238095,126.12016,850.81345)"
       cx="48"
       cy="72"
       fx="48"
       fy="72"
       r="42" />
    <radialGradient
       inkscape:collect="always"
       xlink:href="#linearGradient3737"
       id="radialGradient4164"
       gradientUnits="userSpaceOnUse"
       gradientTransform="matrix(1.1573129,0,0,0.99590774,15.42628,847.58201)"
       cx="48"
       cy="90.171875"
       fx="48"
       fy="90.171875"
       r="42" />
    <linearGradient
       inkscape:collect="always"
       xlink:href="#linearGradient3737"
       id="linearGradient4167"
       gradientUnits="userSpaceOnUse"
       gradientTransform="translate(22.9773,847.38488)"
       x1="36.357143"
       y1="6"
       x2="36.357143"
       y2="63.893143" />
    <linearGradient
       inkscape:collect="always"
       xlink:href="#linearGradient3700"
       id="linearGradient4170"
       gradientUnits="userSpaceOnUse"
       gradientTransform="translate(22.9773,847.38488)"
       x1="48"
       y1="90"
       x2="48"
       y2="5.9877172" />
    <linearGradient
       inkscape:collect="always"
       xlink:href="#linearGradient4141"
       id="linearGradient4173"
       gradientUnits="userSpaceOnUse"
       x1="48"
       y1="72.190804"
       x2="48"
       y2="5.9877172"
       gradientTransform="translate(132.9773,847.38488)" />
    <linearGradient
       inkscape:collect="always"
       xlink:href="#linearGradient3737"
       id="linearGradient4175"
       gradientUnits="userSpaceOnUse"
       x1="48"
       y1="20.220806"
       x2="48"
       y2="138.66119" />
    <linearGradient
       inkscape:collect="always"
       xlink:href="#ButtonShadow"
       id="linearGradient4219"
       gradientUnits="userSpaceOnUse"
       gradientTransform="translate(-1,1)"
       x1="48"
       y1="90.868095"
       x2="48"
       y2="5.9877172" />
    <linearGradient
       inkscape:collect="always"
       xlink:href="#ButtonShadow"
       id="linearGradient4221"
       gradientUnits="userSpaceOnUse"
       gradientTransform="translate(-1,1)"
       x1="48"
       y1="90.868095"
       x2="48"
       y2="5.9877172" />
    <linearGradient
       inkscape:collect="always"
       xlink:href="#ButtonShadow"
       id="linearGradient4223"
       gradientUnits="userSpaceOnUse"
       gradientTransform="translate(-1,1)"
       x1="48"
       y1="90.868095"
       x2="48"
       y2="5.9877172" />
    <linearGradient
       inkscape:collect="always"
       xlink:href="#ButtonShadow"
       id="linearGradient4225"
       gradientUnits="userSpaceOnUse"
       gradientTransform="translate(-1,1)"
       x1="48"
       y1="90.868095"
       x2="48"
       y2="5.9877172" />
    <linearGradient
       inkscape:collect="always"
       xlink:href="#ButtonShadow"
       id="linearGradient4227"
       gradientUnits="userSpaceOnUse"
       gradientTransform="translate(0,1)"
       x1="48"
       y1="90"
       x2="48"
       y2="5.9877172" />
    <linearGradient
       inkscape:collect="always"
       xlink:href="#linearGradient4141"
       id="linearGradient4229"
       gradientUnits="userSpaceOnUse"
       gradientTransform="translate(132.9773,847.38488)"
       x1="48"
       y1="72.190804"
       x2="48"
       y2="5.9877172" />
    <radialGradient
       inkscape:collect="always"
       xlink:href="#linearGradient3737"
       id="radialGradient4231"
       gradientUnits="userSpaceOnUse"
       gradientTransform="matrix(1.1428571,0,0,0.95238095,126.12016,850.81345)"
       cx="48"
       cy="72"
       fx="48"
       fy="72"
       r="42" />
    <linearGradient
       inkscape:collect="always"
       xlink:href="#linearGradient3737"
       id="linearGradient4233"
       gradientUnits="userSpaceOnUse"
       gradientTransform="translate(132.9773,847.38488)"
       x1="44"
       y1="6"
       x2="44"
       y2="64.215118" />
    <linearGradient
       inkscape:collect="always"
       xlink:href="#linearGradient3737"
       id="linearGradient4235"
       gradientUnits="userSpaceOnUse"
       x1="48"
       y1="20.220806"
       x2="48"
       y2="138.66119" />
    <radialGradient
       inkscape:collect="always"
       xlink:href="#linearGradient3823"
       id="radialGradient4240"
       gradientUnits="userSpaceOnUse"
       gradientTransform="matrix(-0.98462658,1.0467407,-1.0941273,-1.0292048,663.35682,1533.727)"
       cx="23.93898"
       cy="707.70758"
       fx="23.93898"
       fy="707.70758"
       r="108.5" />
    <linearGradient
       inkscape:collect="always"
       xlink:href="#linearGradient4141"
       id="linearGradient4280"
       gradientUnits="userSpaceOnUse"
       gradientTransform="translate(132.9773,847.38488)"
       x1="48"
       y1="72.190804"
       x2="48"
       y2="5.9877172" />
    <radialGradient
       inkscape:collect="always"
       xlink:href="#linearGradient3737"
       id="radialGradient4282"
       gradientUnits="userSpaceOnUse"
       gradientTransform="matrix(1.1428571,0,0,0.95238095,126.12016,850.81345)"
       cx="48"
       cy="72"
       fx="48"
       fy="72"
       r="42" />
    <linearGradient
       inkscape:collect="always"
       xlink:href="#linearGradient3737"
       id="linearGradient4284"
       gradientUnits="userSpaceOnUse"
       gradientTransform="translate(132.9773,847.38488)"
       x1="44"
       y1="6"
       x2="44"
       y2="64.215118" />
    <linearGradient
       inkscape:collect="always"
       xlink:href="#linearGradient3737"
       id="linearGradient4286"
       gradientUnits="userSpaceOnUse"
       x1="48"
       y1="20.220806"
       x2="48"
       y2="138.66119" />
    <linearGradient
       inkscape:collect="always"
       xlink:href="#ButtonShadow"
       id="linearGradient4573"
       gradientUnits="userSpaceOnUse"
       gradientTransform="translate(-1,1)"
       x1="48"
       y1="90.868095"
       x2="48"
       y2="5.9877172" />
    <linearGradient
       inkscape:collect="always"
       xlink:href="#ButtonShadow"
       id="linearGradient4575"
       gradientUnits="userSpaceOnUse"
       gradientTransform="translate(-1,1)"
       x1="48"
       y1="90.868095"
       x2="48"
       y2="5.9877172" />
    <linearGradient
       inkscape:collect="always"
       xlink:href="#ButtonShadow"
       id="linearGradient4577"
       gradientUnits="userSpaceOnUse"
       gradientTransform="translate(-1,1)"
       x1="48"
       y1="90.868095"
       x2="48"
       y2="5.9877172" />
    <linearGradient
       inkscape:collect="always"
       xlink:href="#ButtonShadow"
       id="linearGradient4579"
       gradientUnits="userSpaceOnUse"
       gradientTransform="translate(-1,1)"
       x1="48"
       y1="90.868095"
       x2="48"
       y2="5.9877172" />
    <linearGradient
       inkscape:collect="always"
       xlink:href="#ButtonShadow"
       id="linearGradient4581"
       gradientUnits="userSpaceOnUse"
       gradientTransform="translate(0,1)"
       x1="48"
       y1="90"
       x2="48"
       y2="5.9877172" />
    <linearGradient
       inkscape:collect="always"
       xlink:href="#linearGradient4141"
       id="linearGradient4583"
       gradientUnits="userSpaceOnUse"
       gradientTransform="matrix(2.5193115,0,0,2.5193115,7.0703311,799.79777)"
       x1="48"
       y1="72.190804"
       x2="48"
       y2="5.9877172" />
    <radialGradient
       inkscape:collect="always"
       xlink:href="#linearGradient3737"
       id="radialGradient4585"
       gradientUnits="userSpaceOnUse"
       gradientTransform="matrix(2.879213,0,0,2.3993443,-10.204941,808.43541)"
       cx="48"
       cy="72"
       fx="48"
       fy="72"
       r="42" />
    <linearGradient
       inkscape:collect="always"
       xlink:href="#linearGradient3737"
       id="linearGradient4587"
       gradientUnits="userSpaceOnUse"
       gradientTransform="matrix(2.5193115,0,0,2.5193115,7.0703311,799.79777)"
       x1="44"
       y1="6"
       x2="44"
       y2="64.215118" />
    <linearGradient
       inkscape:collect="always"
       xlink:href="#linearGradient3737"
       id="linearGradient4589"
       gradientUnits="userSpaceOnUse"
       x1="48"
       y1="20.220806"
       x2="48"
       y2="138.66119" />
  </defs>
  <sodipodi:namedview
     id="base"
     pagecolor="#ffffff"
     bordercolor="#666666"
     borderopacity="1.0"
     inkscape:pageopacity="0.0"
     inkscape:pageshadow="2"
     inkscape:zoom="2.375"
     inkscape:cx="128"
     inkscape:cy="128"
     inkscape:document-units="px"
     inkscape:current-layer="layer1"
     showgrid="false"
     inkscape:snap-global="false"
     inkscape:window-width="1366"
     inkscape:window-height="744"
     inkscape:window-x="0"
     inkscape:window-y="24"
     inkscape:window-maximized="1" />
  <metadata
     id="metadata7">
    <rdf:RDF>
      <cc:Work
         rdf:about="">
        <dc:format>image/svg+xml</dc:format>
        <dc:type
           rdf:resource="http://purl.org/dc/dcmitype/StillImage" />
        <dc:title></dc:title>
      </cc:Work>
    </rdf:RDF>
  </metadata>
  <g
     inkscape:label="Capa 1"
     inkscape:groupmode="layer"
     id="layer1"
     transform="translate(0,-796.36218)">
    <g
       id="layer2"
       style="display:none"
       transform="translate(132.9773,847.38488)">
      <rect
         width="86"
         height="85"
         rx="6"
         ry="6"
         x="5"
         y="7"
         id="rect3745"
         style="opacity:0.9;fill:url(#linearGradient4106);fill-opacity:1;fill-rule:nonzero;stroke:none;filter:url(#filter3174)" />
    </g>
    <g
       id="g4557"
       transform="matrix(1.0603448,0,0,1.0603448,-7.7241315,-55.780473)">
      <g
         transform="matrix(2.5193115,0,0,2.5193115,7.0703311,799.79777)"
         id="layer3">
        <path
           style="opacity:0.07999998;fill:url(#linearGradient4573);fill-opacity:1;fill-rule:nonzero;stroke:none"
           id="path4029"
           d="m 12,4.03125 c -6.0701637,-0.1617408 -10.6911509,5.6895113 -9.96875,11.5 7.16e-5,0.04167 -7.01e-5,0.08333 0,0.125 0.030431,18.086218 -0.077787,36.153437 0.03125,54.25 a 0.93232674,0.93232674 0 0 0 0,0.0625 c 0.4297709,5.831518 6.2168912,9.674679 11.71875,9 0.0418,-0.0051 0.08323,0.0056 0.125,0 l 5.3125,0 c -0.679778,4.428501 -1.596836,8.895227 -2.0625,13.40625 a 0.93232674,0.93232674 0 0 0 0.03125,0.28125 c 0.279995,1.294203 1.371731,2.108795 2.46875,2.25 1.023884,0.131791 2.065552,-0.225148 2.84375,-1 l 0,0.03125 22.84375,-14.96875 c 13.185056,-0.02898 26.362788,0.07707 39.5625,-0.03125 a 0.93232674,0.93232674 0 0 0 0.0625,0 c 5.831518,-0.429771 9.674679,-6.216892 9,-11.71875 -0.0051,-0.0418 0.0056,-0.08323 0,-0.125 -0.03043,-18.00176 0.07779,-35.987855 -0.03125,-54 a 0.93232674,0.93232674 0 0 0 0,-0.0625 c -0.429771,-5.8315178 -6.216892,-9.6746792 -11.71875,-9 l -0.125,0 -70.0625,0 -0.03125,0 z"
           inkscape:connector-curvature="0" />
        <path
           style="opacity:0.1;fill:url(#linearGradient4575);fill-opacity:1;fill-rule:nonzero;stroke:none"
           id="path4015"
           inkscape:connector-curvature="0"
           d="M 12,4.96875 C 6.498217,4.8031106 2.2406967,10.230306 2.96875,15.520213 c 0.031153,18.132768 -0.06237,36.268711 0.046873,54.39949 0.3891125,5.279828 5.7301904,8.791471 10.757959,8.111547 2.17964,0 4.359279,0 6.538918,0 -0.693629,4.811167 -1.723208,9.637038 -2.21875,14.4375 0.399566,1.846889 2.79006,1.976363 3.910163,0.694482 C 29.700525,88.119238 37.397138,83.075244 45.09375,78.03125 58.368678,78.00033 71.646761,78.0933 84.919703,77.98438 90.199531,77.595267 93.711174,72.254189 93.03125,67.226421 93.000098,49.178106 93.093619,31.12662 92.984377,13.080297 92.595264,7.8004692 87.254186,4.2888256 82.226418,4.96875 c -23.408806,0 -46.817612,0 -70.226418,0 z" />
        <path
           style="opacity:0.15;fill:url(#linearGradient4577);fill-opacity:1;fill-rule:nonzero;stroke:none"
           id="path4007"
           d="M 12,6 C 7.5921478,6 4,9.5921478 4,14 l 0,55 c 0,4.407852 3.5921478,8 8,8 l 9.5,0 -2.40625,14.90625 a 0.98733463,0.98733463 0 0 0 1.5,0.96875 L 44.8125,77 84,77 c 4.407852,0 8,-3.592148 8,-8 L 92,14 C 92,9.5921478 88.407852,6 84,6 L 12,6 z"
           inkscape:connector-curvature="0" />
        <path
           style="opacity:0.3;fill:url(#linearGradient4579);fill-opacity:1;fill-rule:nonzero;stroke:none"
           id="rect3991"
           inkscape:connector-curvature="0"
           d="M 12,7 C 8.122,7 5,10.122 5,14 l 0,55 c 0,3.878 3.122,7 7,7 L 22.65625,76 20.0625,92.0625 44.5625,76 84,76 c 3.878,0 7,-3.122 7,-7 L 91,14 C 91,10.122 87.878,7 84,7 L 12,7 z" />
        <path
           style="opacity:0.45;fill:url(#linearGradient4581);fill-opacity:1;fill-rule:nonzero;stroke:none"
           id="path3984"
           inkscape:connector-curvature="0"
           d="M 12,7 C 8.676,7 6,9.676 6,13 l 0,56 c 0,3.324 2.676,6 6,6 l 12,0 -3,16 23,-16 40,0 c 3.324,0 6,-2.676 6,-6 L 90,13 C 90,9.676 87.324,7 84,7 L 12,7 z" />
      </g>
      <path
         d="m 37.302069,814.91364 c -8.374191,0 -15.115869,6.74168 -15.115869,15.11587 l 0,141.08145 c 0,8.37419 6.741678,15.11586 15.115869,15.11586 l 30.231738,0 -7.557934,40.30898 57.944167,-40.30898 100.77246,0 c 8.37419,0 15.11587,-6.74167 15.11587,-15.11586 l 0,-141.08145 c 0,-8.37419 -6.74168,-15.11587 -15.11587,-15.11587 l -181.390431,0 z"
         inkscape:connector-curvature="0"
         id="rect2419"
         style="fill:url(#linearGradient4583);fill-opacity:1;fill-rule:nonzero;stroke:none" />
      <path
         d="m 37.302069,814.91364 c -8.374191,0 -15.115869,6.74168 -15.115869,15.11587 l 0,141.08145 c 0,8.37419 6.741678,15.11586 15.115869,15.11586 l 30.231738,0 -7.557934,40.30898 57.944167,-40.30898 100.77246,0 c 8.37419,0 15.11587,-6.74167 15.11587,-15.11586 l 0,-141.08145 c 0,-8.37419 -6.74168,-15.11587 -15.11587,-15.11587 l -181.390431,0 z m 0,5.03863 181.390431,0 c 5.67215,0 10.07724,4.40509 10.07724,10.07724 l 0,141.08145 c 0,5.67215 -4.40509,10.07724 -10.07724,10.07724 l -100.77246,0 a 5.0350267,5.0350267 0 0 0 -2.91296,0.94474 l -47.788187,33.22346 5.274809,-28.18483 a 5.0350267,5.0350267 0 0 0 -4.959895,-5.98337 l -30.231738,0 c -5.672154,0 -10.077246,-4.40509 -10.077246,-10.07724 l 0,-141.08145 c 0,-5.67215 4.405092,-10.07724 10.077246,-10.07724 z"
         inkscape:connector-curvature="0"
         id="path3969"
         style="opacity:0.4;fill:url(#radialGradient4585);fill-opacity:1;fill-rule:nonzero;stroke:none" />
      <path
         d="m 37.302069,814.91364 c -8.374191,0 -15.115869,6.74168 -15.115869,15.11587 l 0,141.08145 c 0,7.32741 5.145014,13.39606 12.045458,14.80095 -5.547876,-1.35461 -9.604875,-6.29127 -9.604875,-12.28164 l 0,-141.08145 c 0,-7.04749 5.627789,-12.67528 12.675286,-12.67528 l 181.390431,0 c 7.04749,0 12.67528,5.62779 12.67528,12.67528 l 0,141.08145 c 0,5.99037 -4.05702,10.92703 -9.60487,12.28164 6.90044,-1.40489 12.04546,-7.47354 12.04546,-14.80095 l 0,-141.08145 c 0,-8.37419 -6.74168,-15.11587 -15.11587,-15.11587 l -181.390431,0 z m 30.231738,171.39191 -7.557934,40.23025 57.865437,-40.23025 a 2.4721899,2.4721899 0 0 0 -1.33839,0.39365 l -52.984266,36.8449 6.455736,-34.32559 a 2.4721899,2.4721899 0 0 0 -2.440583,-2.91296 z"
         inkscape:connector-curvature="0"
         id="path3953"
         style="opacity:0.7;fill:url(#linearGradient4587);fill-opacity:1;fill-rule:nonzero;stroke:none" />
      <g
         transform="matrix(0.23993444,0,0,0.23993444,20.74659,961.15116)"
         style="display:inline"
         id="layer5">
        <rect
           style="opacity:0.1;fill:url(#linearGradient4589);fill-opacity:1;fill-rule:nonzero;stroke:#ffffff;stroke-width:0.57973403;stroke-linecap:round;stroke-linejoin:miter;stroke-miterlimit:4;stroke-opacity:1;stroke-dasharray:none;stroke-dashoffset:0;filter:url(#filter4055)"
           id="rect3171"
           clip-path="url(#clipPath3613)"
           transform="matrix(1,0,0,0.74384496,0,3.8423256)"
           y="15"
           x="15"
           ry="12"
           rx="12"
           height="66"
           width="66" />
      </g>
      <g
         transform="matrix(1.2727271,0,0,1.2727271,290.77263,-246.81789)"
         id="g4243">
        <path
           style="fill:#2980b9;fill-opacity:1;stroke:none"
           d="m -171.8928,899.85589 c 0,-8.99047 2.96178,-17.28896 7.96875,-23.96875 -0.25792,-1.14026 -0.40625,-2.313 -0.40625,-3.53125 0,-8.83656 7.16344,-16 16.00001,-16 4.01813,0 7.68996,1.49137 10.5,3.9375 1.93649,-0.28803 3.92086,-0.4375 5.9375,-0.4375 16.71237,0 31.018,10.25672 37,24.8125 6.38065,2.10373 11,8.1022 11,15.1875 0,7.0853 -4.61935,13.08376 -11,15.1875 -5.982,14.55578 -20.28763,24.8125 -37,24.8125 -2.01664,0 -4.00101,-0.14947 -5.9375,-0.4375 -2.81004,2.44613 -6.48187,3.9375 -10.5,3.9375 -8.83657,0 -16.00001,-7.16344 -16.00001,-16 0,-1.21825 0.14833,-2.39099 0.40625,-3.53125 -5.00697,-6.67979 -7.96875,-14.97829 -7.96875,-23.96875 z m 8,0 c 0,5.86925 1.5857,11.36481 4.34375,16.09375 2.88764,-2.84023 6.84842,-4.59375 11.21876,-4.59375 8.83656,0 16,7.16344 16,16 0,1.5565 -0.24174,3.04608 -0.65625,4.46875 0.36184,0.0121 0.72897,0.0312 1.09375,0.0312 12.05984,0 22.54559,-6.67779 28,-16.53125 -6.89221,-1.78213 -12,-8.01957 -12,-15.46875 0,-7.44918 5.10779,-13.68662 12,-15.46875 -5.45441,-9.85341 -15.94016,-16.5312 -28,-16.5312 -0.36478,0 -0.73191,0.0191 -1.09375,0.0312 0.41451,1.42267 0.65625,2.91225 0.65625,4.46875 0,8.83656 -7.16344,16 -16,16 -4.37034,0 -8.33112,-1.75352 -11.21876,-4.59375 -2.75805,4.72894 -4.34375,10.2245 -4.34375,16.09375 z"
           id="path14715-4"
           inkscape:connector-curvature="0" />
        <path
           style="fill:#3498db;fill-opacity:1;stroke:none"
           d="m -171.89279,901.8559 c 0,8.99047 2.96178,17.28896 7.96875,23.96875 -0.25792,1.14026 -0.40625,2.313 -0.40625,3.53125 0,8.83656 7.16344,16 15.99999,16 4.01813,0 7.68996,-1.49136 10.5,-3.9375 1.9365,0.28804 3.92086,0.4375 5.9375,0.4375 16.71237,0 31.018,-10.25671 37,-24.8125 6.38065,-2.10373 11,-8.1022 11,-15.1875 0,-7.08529 -4.61935,-13.08376 -11,-15.1875 -5.982,-14.55578 -20.28763,-24.8125 -37,-24.8125 -2.01664,0 -4.001,0.14947 -5.9375,0.4375 -2.81004,-2.44613 -6.48187,-3.9375 -10.5,-3.9375 -8.83656,0 -16,7.16345 -16,16 0,1.21825 0.14833,2.39099 0.40625,3.53125 -5.00696,6.6798 -7.96875,14.97829 -7.96875,23.96875 z m 8,0 c 0,-5.86924 1.5857,-11.36481 4.34375,-16.09375 2.88764,2.84023 6.8484,4.59375 11.21874,4.59375 8.83657,0 16,-7.16344 16,-16 0,-1.5565 -0.24173,-3.04607 -0.65625,-4.46875 0.36184,-0.0121 0.72897,-0.0312 1.09375,-0.0312 12.05984,0 22.54559,6.67779 28,16.53125 -6.89221,1.78214 -12,8.01958 -12,15.46875 0,7.44918 5.10779,13.68662 12,15.46875 -5.45441,9.85342 -15.94016,16.5312 -28,16.5312 -0.36478,0 -0.73191,-0.0191 -1.09375,-0.0312 0.41452,-1.42267 0.65625,-2.91225 0.65625,-4.46875 0,-8.83655 -7.16343,-16 -16,-16 -4.37034,0 -8.33111,1.75352 -11.21875,4.59375 -2.75804,-4.72893 -4.34375,-10.2245 -4.34375,-16.09375 z"
           id="path14715"
           inkscape:connector-curvature="0" />
      </g>
    </g>
  </g>
</svg>
