<?xml version="1.0" encoding="UTF-8" standalone="no"?>
<!-- Created with Inkscape (http://www.inkscape.org/) -->

<svg
   width="896"
   height="192"
   viewBox="0 0 237.06666 50.800003"
   version="1.1"
   id="svg8"
   inkscape:version="1.1.2 (0a00cf5339, 2022-02-04)"
   sodipodi:docname="s8a-logo.svg"
   inkscape:export-filename="/home/s8a/Projects/s8a.github.io/assets/img/s8a-logo.png"
   inkscape:export-xdpi="96"
   inkscape:export-ydpi="96"
   xmlns:inkscape="http://www.inkscape.org/namespaces/inkscape"
   xmlns:sodipodi="http://sodipodi.sourceforge.net/DTD/sodipodi-0.dtd"
   xmlns="http://www.w3.org/2000/svg"
   xmlns:svg="http://www.w3.org/2000/svg"
   xmlns:rdf="http://www.w3.org/1999/02/22-rdf-syntax-ns#"
   xmlns:cc="http://creativecommons.org/ns#"
   xmlns:dc="http://purl.org/dc/elements/1.1/">
  <defs
     id="defs2" />
  <sodipodi:namedview
     id="base"
     pagecolor="#ffffff"
     bordercolor="#666666"
     borderopacity="1.0"
     inkscape:pageopacity="0.0"
     inkscape:pageshadow="2"
     inkscape:zoom="0.41778227"
     inkscape:cx="424.86245"
     inkscape:cy="253.72068"
     inkscape:document-units="px"
     inkscape:current-layer="layer1"
     showgrid="false"
     units="px"
     inkscape:window-width="1366"
     inkscape:window-height="716"
     inkscape:window-x="0"
     inkscape:window-y="0"
     inkscape:window-maximized="1"
     inkscape:pagecheckerboard="0" />
  <metadata
     id="metadata5">
    <rdf:RDF>
      <cc:Work
         rdf:about="">
        <dc:format>image/svg+xml</dc:format>
        <dc:type
           rdf:resource="http://purl.org/dc/dcmitype/StillImage" />
      </cc:Work>
    </rdf:RDF>
  </metadata>
  <g
     inkscape:label="Layer 1"
     inkscape:groupmode="layer"
     id="layer1"
     transform="translate(0,-245.14165)">
    <rect
       style="fill:#002b36;fill-opacity:1;stroke:none;stroke-width:1.1198;stroke-miterlimit:4;stroke-dasharray:none"
       id="rect10"
       width="237.06667"
       height="50.799999"
       x="0"
       y="245.14165" />
    <g
       id="g234"
       transform="translate(1.3229175,-0.52916461)">
      <path
         d="m 62.914027,279.38233 q 1.551488,0 2.631981,-0.36016 1.080505,-0.36016 1.579196,-0.94198 0.526386,-0.5818 0.720328,-1.13591 0.221638,-0.5818 0.221638,-1.21902 0,-2.29951 -3.712474,-3.2692 l -5.014617,-1.32983 q -3.961819,-1.02509 -3.961819,-4.70986 0,-2.7428 1.91164,-4.32198 1.939361,-1.60691 5.263962,-1.60691 3.490837,0 5.430197,1.66231 1.939348,1.6346 1.967056,4.59904 h -2.438052 q -0.02773,-1.96706 -1.329838,-3.01986 -1.30213,-1.08049 -3.712474,-1.08049 -2.050179,0 -3.296906,0.94198 -1.219019,0.94197 -1.219019,2.46575 0,1.1636 0.748036,1.82853 0.748036,0.66492 2.576565,1.16361 l 5.070033,1.35755 q 2.050166,0.55409 3.158367,1.88394 1.135908,1.32984 1.135908,3.18608 0,0.80345 -0.221637,1.60689 -0.19393,0.77574 -0.748037,1.6346 -0.554094,0.83116 -1.412961,1.46836 -0.858855,0.63722 -2.299513,1.0528 -1.412961,0.41558 -3.213782,0.41558 -1.135909,0 -2.188706,-0.19394 -1.02509,-0.16622 -2.105582,-0.63722 -1.080493,-0.49869 -1.856237,-1.24673 -0.775744,-0.77573 -1.302143,-2.05016 -0.498691,-1.27444 -0.526387,-2.93675 h 2.438039 v 0.13853 q 0,0.85886 0.249346,1.60689 0.277053,0.74804 0.858855,1.46838 0.60951,0.72033 1.773126,1.1636 1.191311,0.41558 2.825911,0.41558 z"
         style="font-style:normal;font-variant:normal;font-weight:normal;font-stretch:normal;font-size:22.5778px;line-height:1.25;font-family:FreeSans;-inkscape-font-specification:FreeSans;letter-spacing:0px;word-spacing:0px;fill:#ffffff;fill-opacity:1;stroke:none;stroke-width:0.264583"
         id="path3747"
         inkscape:connector-curvature="0" />
      <path
         d="m 73.413384,270.79377 q 0.166222,-4.70986 5.818056,-4.70986 2.687384,0 4.072638,1.02508 1.385254,0.99738 1.385254,2.93674 v 8.53315 q 0,1.13591 1.246727,1.13591 0.249346,0 0.498691,-0.0555 v 1.74541 q -0.969674,0.24935 -1.579184,0.24935 -1.1082,0 -1.690014,-0.5264 -0.554095,-0.49869 -0.692621,-1.60689 -2.32722,2.13329 -4.931506,2.13329 -2.188693,0 -3.490836,-1.16362 -1.274423,-1.16361 -1.274423,-3.13067 0,-0.63722 0.110807,-1.16362 0.138527,-0.52638 0.277053,-0.91425 0.166222,-0.41558 0.554094,-0.74804 0.387872,-0.36016 0.637218,-0.58181 0.277053,-0.22164 0.886563,-0.41557 0.637217,-0.22164 0.969674,-0.30476 0.332456,-0.11081 1.163616,-0.24935 0.831147,-0.13852 1.219019,-0.19393 0.387872,-0.0555 1.385254,-0.19394 1.357546,-0.16622 1.883945,-0.52639 0.526399,-0.36017 0.526399,-1.0805 v -0.60951 q 0,-1.05279 -0.858868,-1.60689 -0.831147,-0.55411 -2.382623,-0.55411 -1.606904,0 -2.438051,0.63722 -0.831148,0.60951 -0.969674,1.93936 z m 4.626732,8.83791 q 1.911653,0 3.130672,-0.99738 1.219032,-1.02509 1.219032,-2.18871 v -2.60427 q -0.692633,0.33247 -2.105595,0.5541 -1.385241,0.22164 -2.410331,0.38788 -1.025089,0.16622 -1.856237,0.80344 -0.831159,0.60951 -0.831159,1.71772 0,1.1082 0.748036,1.71771 0.748036,0.60951 2.105582,0.60951 z"
         style="font-style:normal;font-variant:normal;font-weight:normal;font-stretch:normal;font-size:22.5778px;line-height:1.25;font-family:FreeSans;-inkscape-font-specification:FreeSans;letter-spacing:0px;word-spacing:0px;fill:#ffffff;fill-opacity:1;stroke:none;stroke-width:0.264583"
         id="path3749"
         inkscape:connector-curvature="0" />
      <path
         d="m 88.650292,266.49948 h 2.13329 v 2.05018 q 0.941967,-1.30214 1.967056,-1.88394 1.052797,-0.58181 2.493455,-0.58181 2.687384,0 3.906416,2.21641 1.025081,-1.21902 2.022461,-1.71771 0.99738,-0.4987 2.43805,-0.4987 2.02247,0 3.10296,1.05279 1.1082,1.02509 1.1082,2.99214 v 10.88809 h -2.32722 v -10.00152 q 0,-1.38526 -0.72033,-2.13329 -0.69263,-0.77575 -1.96706,-0.77575 -1.41295,0 -2.41033,1.1082 -0.997386,1.10822 -0.997386,2.6874 v 9.11496 h -2.327232 v -10.00152 q 0,-1.38526 -0.720329,-2.13329 -0.692621,-0.77575 -1.967056,-0.77575 -1.412961,0 -2.410343,1.1082 -0.997382,1.10822 -0.997382,2.6874 v 9.11496 h -2.32722 z"
         style="font-style:normal;font-variant:normal;font-weight:normal;font-stretch:normal;font-size:22.5778px;line-height:1.25;font-family:FreeSans;-inkscape-font-specification:FreeSans;letter-spacing:0px;word-spacing:0px;fill:#ffffff;fill-opacity:1;stroke:none;stroke-width:0.264583"
         id="path3751"
         inkscape:connector-curvature="0" />
      <path
         d="m 122.71365,281.01693 h -2.07788 v -2.02247 q -1.02508,1.44066 -2.13329,2.05018 -1.1082,0.60951 -2.7151,0.60951 -2.10558,0 -3.38001,-1.0805 -1.24673,-1.0805 -1.24673,-2.88133 v -11.19284 h 2.29952 v 10.27858 q 0,1.30213 0.80344,2.07787 0.80346,0.77575 2.18871,0.77575 1.80082,0 2.88133,-1.32984 1.08049,-1.35756 1.08049,-3.57396 v -8.2284 h 2.29952 z"
         style="font-style:normal;font-variant:normal;font-weight:normal;font-stretch:normal;font-size:22.5778px;line-height:1.25;font-family:FreeSans;-inkscape-font-specification:FreeSans;letter-spacing:0px;word-spacing:0px;fill:#ffffff;fill-opacity:1;stroke:none;stroke-width:0.264583"
         id="path3753"
         inkscape:connector-curvature="0" />
      <path
         d="m 138.31462,274.53395 h -10.69415 q 0.0555,2.27182 1.16362,3.62936 1.1359,1.35755 3.10296,1.35755 2.82591,0 3.7956,-2.90903 h 2.32722 q -0.44329,2.38263 -2.07788,3.71247 -1.6346,1.32985 -4.12805,1.32985 -3.04756,0 -4.82069,-2.05018 -1.77311,-2.07787 -1.77311,-5.65183 0,-3.57395 1.80082,-5.70724 1.82853,-2.16099 4.84838,-2.16099 6.45528,0 6.45528,8.45004 z m -10.63874,-1.88394 h 8.17299 q 0,-1.88395 -1.13591,-3.15838 -1.13591,-1.27444 -2.88133,-1.27444 -1.74541,0 -2.88131,1.21903 -1.13591,1.19132 -1.27444,3.21379 z"
         style="font-style:normal;font-variant:normal;font-weight:normal;font-stretch:normal;font-size:22.5778px;line-height:1.25;font-family:FreeSans;-inkscape-font-specification:FreeSans;letter-spacing:0px;word-spacing:0px;fill:#ffffff;fill-opacity:1;stroke:none;stroke-width:0.264583"
         id="path3755"
         inkscape:connector-curvature="0" />
      <path
         d="m 143.14092,260.81995 v 20.19698 h -2.32722 v -20.19698 z"
         style="font-style:normal;font-variant:normal;font-weight:normal;font-stretch:normal;font-size:22.5778px;line-height:1.25;font-family:FreeSans;-inkscape-font-specification:FreeSans;letter-spacing:0px;word-spacing:0px;fill:#ffffff;fill-opacity:1;stroke:none;stroke-width:0.264583"
         id="path3757"
         inkscape:connector-curvature="0" />
    </g>
    <g
       id="g241"
       transform="translate(-0.05713084,-0.52916461)">
      <path
         d="m 172.64248,271.23705 q 0,4.48821 -2.65969,7.45265 -2.65968,2.96445 -7.09249,2.96445 -4.3774,0 -7.06479,-2.90903 -2.68739,-2.93673 -2.68739,-7.6743 0,-4.73756 2.68739,-7.64659 2.68739,-2.93675 7.03708,-2.93675 4.43281,0 7.09249,2.93675 2.6874,2.93673 2.6874,7.81282 z m -9.77989,-8.47775 q -3.21379,0 -5.18084,2.29952 -1.96706,2.27182 -1.96706,6.012 0,3.74018 1.96706,6.0397 1.99476,2.27181 5.20855,2.27181 3.21378,0 5.18085,-2.27181 1.99476,-2.27182 1.99476,-5.92888 0,-3.8233 -1.96707,-6.12282 -1.96705,-2.29952 -5.23625,-2.29952 z"
         style="font-style:normal;font-variant:normal;font-weight:normal;font-stretch:normal;font-size:22.5778px;line-height:1.25;font-family:FreeSans;-inkscape-font-specification:FreeSans;letter-spacing:0px;word-spacing:0px;fill:#ffffff;fill-opacity:1;stroke:none;stroke-width:0.264583"
         id="path3759"
         inkscape:connector-curvature="0" />
      <path
         d="m 186.74997,271.37557 h -2.32722 q -0.22164,-1.52378 -1.1082,-2.32722 -0.88657,-0.83116 -2.32724,-0.83116 -1.88394,0 -2.96443,1.55149 -1.05279,1.52378 -1.05279,4.23887 0,2.57657 1.08049,4.04495 1.0805,1.46836 2.99215,1.46836 2.96444,0 3.54624,-3.49084 h 2.32723 q -0.22164,2.65968 -1.77312,4.15575 -1.55149,1.46838 -4.15577,1.46838 -2.96443,0 -4.70985,-2.05018 -1.71771,-2.07787 -1.71771,-5.59642 0,-3.60165 1.74542,-5.76265 1.77312,-2.16099 4.70985,-2.16099 2.52116,0 4.01724,1.35755 1.52378,1.35755 1.71771,3.93411 z"
         style="font-style:normal;font-variant:normal;font-weight:normal;font-stretch:normal;font-size:22.5778px;line-height:1.25;font-family:FreeSans;-inkscape-font-specification:FreeSans;letter-spacing:0px;word-spacing:0px;fill:#ffffff;fill-opacity:1;stroke:none;stroke-width:0.264583"
         id="path3761"
         inkscape:connector-curvature="0" />
      <path
         d="m 198.63153,270.95999 q 0,-1.52377 -0.94196,-2.18869 -0.91427,-0.66493 -2.05018,-0.66493 -1.77313,0 -2.85362,1.35755 -1.08049,1.32985 -1.08049,3.54625 v 8.00676 h -2.29953 v -20.19698 h 2.29953 v 7.6743 q 1.02509,-1.32984 2.05016,-1.85624 1.0528,-0.5541 2.60428,-0.5541 2.10559,0 3.32461,1.0805 1.24673,1.05278 1.24673,2.88132 v 10.9712 h -2.29953 z"
         style="font-style:normal;font-variant:normal;font-weight:normal;font-stretch:normal;font-size:22.5778px;line-height:1.25;font-family:FreeSans;-inkscape-font-specification:FreeSans;letter-spacing:0px;word-spacing:0px;fill:#ffffff;fill-opacity:1;stroke:none;stroke-width:0.264583"
         id="path3763"
         inkscape:connector-curvature="0" />
      <path
         d="m 209.93953,266.08391 q 3.13068,0 4.84839,2.07788 1.74541,2.05017 1.74541,5.81806 0,3.57395 -1.77312,5.62412 -1.74542,2.05018 -4.79298,2.05018 -3.10296,0 -4.84838,-2.05018 -1.71771,-2.07787 -1.71771,-5.73494 0,-3.65707 1.74542,-5.70724 1.74541,-2.07788 4.79297,-2.07788 z m 0.0277,2.13328 q -1.93935,0 -3.04755,1.52378 -1.1082,1.49608 -1.1082,4.12806 0,2.63198 1.1082,4.15576 1.1082,1.49607 3.04755,1.49607 1.91165,0 3.01985,-1.49607 1.13591,-1.52378 1.13591,-4.07265 0,-2.68739 -1.1082,-4.21117 -1.0805,-1.52378 -3.04756,-1.52378 z"
         style="font-style:normal;font-variant:normal;font-weight:normal;font-stretch:normal;font-size:22.5778px;line-height:1.25;font-family:FreeSans;-inkscape-font-specification:FreeSans;letter-spacing:0px;word-spacing:0px;fill:#ffffff;fill-opacity:1;stroke:none;stroke-width:0.264583"
         id="path3765"
         inkscape:connector-curvature="0" />
      <path
         d="m 218.81077,270.79377 q 0.16622,-4.70986 5.81806,-4.70986 2.68738,0 4.07264,1.02508 1.38525,0.99738 1.38525,2.93674 v 8.53315 q 0,1.13591 1.24673,1.13591 0.24934,0 0.49869,-0.0555 v 1.74541 q -0.96968,0.24935 -1.57919,0.24935 -1.1082,0 -1.69001,-0.5264 -0.55409,-0.49869 -0.69262,-1.60689 -2.32722,2.13329 -4.93151,2.13329 -2.18869,0 -3.49083,-1.16362 -1.27443,-1.16361 -1.27443,-3.13067 0,-0.63722 0.11081,-1.16362 0.13853,-0.52638 0.27705,-0.91425 0.16623,-0.41558 0.5541,-0.74804 0.38787,-0.36016 0.63722,-0.58181 0.27705,-0.22164 0.88656,-0.41557 0.63722,-0.22164 0.96967,-0.30476 0.33246,-0.11081 1.16362,-0.24935 0.83115,-0.13852 1.21902,-0.19393 0.38787,-0.0555 1.38525,-0.19394 1.35755,-0.16622 1.88395,-0.52639 0.5264,-0.36017 0.5264,-1.0805 v -0.60951 q 0,-1.05279 -0.85887,-1.60689 -0.83115,-0.55411 -2.38263,-0.55411 -1.6069,0 -2.43805,0.63722 -0.83114,0.60951 -0.96967,1.93936 z m 4.62673,8.83791 q 1.91166,0 3.13068,-0.99738 1.21903,-1.02509 1.21903,-2.18871 v -2.60427 q -0.69264,0.33247 -2.1056,0.5541 -1.38524,0.22164 -2.41033,0.38788 -1.02509,0.16622 -1.85624,0.80344 -0.83115,0.60951 -0.83115,1.71772 0,1.1082 0.74803,1.71771 0.74804,0.60951 2.10558,0.60951 z"
         style="font-style:normal;font-variant:normal;font-weight:normal;font-stretch:normal;font-size:22.5778px;line-height:1.25;font-family:FreeSans;-inkscape-font-specification:FreeSans;letter-spacing:0px;word-spacing:0px;fill:#ffffff;fill-opacity:1;stroke:none;stroke-width:0.264583"
         id="path3767"
         inkscape:connector-curvature="0" />
    </g>
    <g
       id="g52"
       transform="matrix(2.7142857,0,0,2.7142857,2.4190479,-512.62022)">
      <g
         id="g44"
         transform="matrix(1,0,0,1.0000206,0,-0.00577308)">
        <path
           d="m 6.4471516,286.09316 q 0,0.5023 -0.2232422,0.94878 -0.2232422,0.44649 -0.6077148,0.76275 0.6697265,0.40307 1.0666015,1.0666 0.4030762,0.66352 0.4030762,1.45107 0,0.79995 -0.4030762,1.47588 -0.4030761,0.66973 -1.0976074,1.0604 -0.6945312,0.39068 -1.5068847,0.39068 -1.2526367,0 -2.1394043,-0.85577 -0.8805664,-0.85576 -0.8805664,-2.07119 0,-0.79375 0.396875,-1.45727 0.396875,-0.66353 1.0790039,-1.0604 -0.3906738,-0.31626 -0.6201172,-0.76275 -0.2232422,-0.44648 -0.2232422,-0.94878 0,-0.94257 0.7007325,-1.5999 0.7007324,-0.66352 1.6867187,-0.66352 0.9735839,0 1.6681152,0.66352 0.7007324,0.65733 0.7007324,1.5999 z m -3.8075195,2.84014 q -0.6015136,0.57671 -0.6015136,1.38906 0,0.81236 0.6015136,1.40147 0.6077149,0.58291 1.4386719,0.58291 0.830957,0 1.4262695,-0.58291 0.6015136,-0.58911 0.6015136,-1.40147 0,-0.81235 -0.6015136,-1.38906 -0.5953125,-0.58291 -1.4262695,-0.58291 -0.8371582,0 -1.4386719,0.58291 z m 1.4386719,-1.53789 q 0.5643066,0 0.9735839,-0.38447 0.4154786,-0.38448 0.4154786,-0.91778 0,-0.5333 -0.4092774,-0.91777 -0.4092773,-0.39067 -0.9797851,-0.39067 -0.5829102,0 -0.9921875,0.38447 -0.4092773,0.38447 -0.4092773,0.92397 0,0.5333 0.4092773,0.91778 0.4092773,0.38447 0.9921875,0.38447 z"
           style="font-weight:bold;font-size:12.7px;line-height:1.25;font-family:Sawasdee;-inkscape-font-specification:'Sawasdee Bold';letter-spacing:-0.238125px;word-spacing:0px;fill:#859900;stroke-width:0.264583"
           id="path31068" />
        <path
           d="m 10.256739,289.4604 h 3.007568 l -1.513086,-3.175 z m -0.4526861,0.95498 -1.1472168,2.74092 H 7.6026369 l 4.1361821,-9.33897 4.136181,9.33897 h -1.0604 l -1.16582,-2.74092 z"
           style="font-weight:bold;font-size:12.7px;line-height:1.25;font-family:Sawasdee;-inkscape-font-specification:'Sawasdee Bold';letter-spacing:-0.238125px;word-spacing:0px;fill:#859900;stroke-width:0.264583"
           id="path31070" />
        <rect
           style="opacity:1;fill:#b58900;fill-opacity:1;stroke:none;stroke-width:0.519963;stroke-miterlimit:4;stroke-dasharray:none"
           id="rect927"
           width="14.816667"
           height="1.0583333"
           x="1.0583333"
           y="281.12497" />
        <rect
           style="opacity:1;fill:#b58900;fill-opacity:1;stroke:none;stroke-width:0.519963;stroke-miterlimit:4;stroke-dasharray:none"
           id="rect927-8"
           width="14.816667"
           height="1.0583333"
           x="1.0583333"
           y="294.88333" />
      </g>
    </g>
  </g>
</svg>
