<?xml version="1.0" encoding="UTF-8" standalone="no"?>
<!-- Created with Inkscape (http://www.inkscape.org/) -->

<svg
   width="1200"
   height="630"
   viewBox="0 0 317.49999 166.68751"
   version="1.1"
   id="svg8"
   inkscape:version="1.2.2 (b0a8486541, 2022-12-01)"
   sodipodi:docname="s8a-thumbnail.svg"
   inkscape:export-filename="s8a-thumbnail.png"
   inkscape:export-xdpi="96"
   inkscape:export-ydpi="96"
   xmlns:inkscape="http://www.inkscape.org/namespaces/inkscape"
   xmlns:sodipodi="http://sodipodi.sourceforge.net/DTD/sodipodi-0.dtd"
   xmlns="http://www.w3.org/2000/svg"
   xmlns:svg="http://www.w3.org/2000/svg"
   xmlns:rdf="http://www.w3.org/1999/02/22-rdf-syntax-ns#"
   xmlns:cc="http://creativecommons.org/ns#"
   xmlns:dc="http://purl.org/dc/elements/1.1/">
  <defs
     id="defs2">
    <rect
       x="153.28264"
       y="380.47099"
       width="967.55254"
       height="200.87434"
       id="rect1509" />
    <rect
       x="352.77575"
       y="194.13992"
       width="394.04676"
       height="208.44142"
       id="rect1397" />
  </defs>
  <sodipodi:namedview
     id="base"
     pagecolor="#ffffff"
     bordercolor="#666666"
     borderopacity="1.0"
     inkscape:pageopacity="0.0"
     inkscape:pageshadow="2"
     inkscape:zoom="0.41778227"
     inkscape:cx="387.76179"
     inkscape:cy="409.30411"
     inkscape:document-units="px"
     inkscape:current-layer="layer1"
     showgrid="false"
     units="px"
     inkscape:window-width="1366"
     inkscape:window-height="696"
     inkscape:window-x="0"
     inkscape:window-y="0"
     inkscape:window-maximized="1"
     inkscape:pagecheckerboard="0"
     inkscape:showpageshadow="2"
     inkscape:deskcolor="#d1d1d1"
     showguides="true" />
  <metadata
     id="metadata5">
    <rdf:RDF>
      <cc:Work
         rdf:about="">
        <dc:format>image/svg+xml</dc:format>
        <dc:type
           rdf:resource="http://purl.org/dc/dcmitype/StillImage" />
      </cc:Work>
    </rdf:RDF>
  </metadata>
  <g
     inkscape:label="Layer 1"
     inkscape:groupmode="layer"
     id="layer1"
     transform="translate(0,-130.31248)">
    <rect
       style="opacity:1;fill:#030712;fill-opacity:1;stroke:none;stroke-width:0.52916664;stroke-miterlimit:4;stroke-dasharray:none"
       id="rect10"
       width="317.5"
       height="166.68748"
       x="0"
       y="130.31245" />
    <g
       id="g1854"
       transform="translate(107.95,49.477052)">
      <g
         aria-label="S8A"
         transform="matrix(0.26458333,0,0,0.26458333,-94.893377,87.224573)"
         id="text1395"
         style="font-size:170.667px;font-family:'Nimbus Sans';-inkscape-font-specification:'Nimbus Sans';white-space:pre;shape-inside:url(#rect1397);display:inline;fill:#030712;stroke:#ffff00">
        <path
           d="m 447.05715,352.80405 q -9.55735,0 -18.51737,-2.98667 -8.87468,-2.98667 -15.5307,-8.53335 -6.65601,-5.54668 -9.38668,-13.22669 l 11.17869,-4.18134 q 1.87733,5.29067 6.82668,9.13068 5.03467,3.75467 11.69069,5.80268 6.74134,2.048 13.73869,2.048 8.19202,0 15.2747,-2.73067 7.08268,-2.73067 11.43469,-7.59468 4.35201,-4.94934 4.35201,-11.60536 0,-6.74134 -4.52268,-11.09335 -4.52268,-4.35201 -11.69069,-6.82668 -7.08268,-2.56001 -14.84803,-3.92535 -12.20269,-2.13333 -21.93071,-5.80267 -9.64269,-3.66934 -15.2747,-10.32536 -5.63201,-6.74134 -5.63201,-17.74937 0,-10.32535 5.97335,-17.92003 5.97334,-7.59468 15.70136,-11.77603 9.81335,-4.18134 21.16271,-4.18134 9.30135,0 18.17604,2.90134 8.87468,2.90134 15.61603,8.44802 6.82668,5.54668 9.81335,13.56803 l -11.34936,4.096 q -1.87733,-5.37601 -6.91201,-9.13068 -4.94934,-3.84001 -11.60536,-5.80268 -6.65601,-2.048 -13.73869,-2.048 -8.10668,-0.0853 -15.18936,2.73067 -6.99735,2.73067 -11.34936,7.68001 -4.35201,4.86401 -4.35201,11.43469 0,7.68002 4.01068,11.86136 4.096,4.09601 11.09335,6.14401 6.99735,2.04801 15.7867,3.66934 11.43469,1.96267 21.24804,6.14402 9.81336,4.096 15.7867,11.00802 5.97335,6.82668 5.97335,16.89603 0,10.24002 -5.97335,17.92004 -5.97334,7.59468 -15.7867,11.77602 -9.72802,4.18134 -21.24804,4.18134 z"
           style="font-family:Urbanist;-inkscape-font-specification:Urbanist;text-align:center;text-anchor:middle;fill:#a3e635;stroke:none"
           id="path1709" />
        <path
           d="m 544.08145,352.80405 q -10.49602,0 -19.20004,-4.77867 -8.61868,-4.77868 -13.73869,-12.80003 -5.12001,-8.02135 -5.12001,-17.8347 0,-9.55735 5.29067,-17.40804 5.29068,-7.93601 13.7387,-12.28802 -6.99735,-4.01068 -11.52003,-10.92269 -4.52267,-6.99735 -4.52267,-15.36003 0,-8.96002 4.69334,-16.2987 4.77868,-7.42401 12.71469,-11.77602 8.02135,-4.43734 17.66404,-4.43734 9.64268,0 17.5787,4.43734 8.02135,4.35201 12.71469,11.77602 4.77868,7.33868 4.77868,16.2987 0,8.36268 -4.52268,15.36003 -4.43734,6.91201 -11.52002,10.92269 8.61868,4.35201 13.82403,12.28802 5.29068,7.85069 5.29068,17.40804 0,9.72802 -5.20535,17.8347 -5.12001,8.02135 -13.73869,12.80003 -8.61869,4.77867 -19.20004,4.77867 z m 0,-11.94669 q 7.08268,0 12.80002,-3.15734 5.71735,-3.15734 9.13069,-8.44801 3.41334,-5.37601 3.41334,-11.86136 0,-6.48535 -3.41334,-11.77602 -3.41334,-5.29068 -9.13069,-8.44802 -5.71734,-3.15734 -12.80002,-3.15734 -6.91201,0 -12.71469,3.15734 -5.71735,3.15734 -9.21602,8.44802 -3.41334,5.29067 -3.41334,11.77602 0,6.48535 3.41334,11.86136 3.49867,5.29067 9.21602,8.44801 5.80268,3.15734 12.71469,3.15734 z m 0,-58.79478 q 6.22934,0 11.26402,-2.73067 5.03468,-2.81601 8.02135,-7.50935 3.07201,-4.69334 3.07201,-10.41069 0,-5.71734 -3.07201,-10.32535 -2.98667,-4.69335 -8.02135,-7.42402 -5.03468,-2.816 -11.26402,-2.816 -6.14401,0 -11.26402,2.816 -5.03468,2.73067 -8.10669,7.42402 -2.98667,4.60801 -2.98667,10.32535 0,5.71735 2.98667,10.41069 3.07201,4.69334 8.10669,7.50935 5.12001,2.73067 11.26402,2.73067 z"
           style="font-family:Urbanist;-inkscape-font-specification:Urbanist;text-align:center;text-anchor:middle;fill:#a3e635;stroke:none"
           id="path1711" />
        <path
           d="m 639.31377,231.11848 h 14.84803 l 43.52008,119.4669 h -12.71469 l -9.30135,-25.60005 h -57.77078 l -9.30135,25.60005 h -12.7147 z m -17.0667,81.92016 h 48.98143 l -24.49072,-67.2428 z"
           style="font-family:Urbanist;-inkscape-font-specification:Urbanist;text-align:center;text-anchor:middle;fill:#a3e635;stroke:none"
           id="path1713" />
      </g>
      <path
         style="color:#000000;fill:#eab308;stroke-width:1.04731;-inkscape-stroke:none"
         d="m 0,193.81248 v 4.23333 h 101.6 v -4.23333 z"
         id="path1680" />
      <path
         style="color:#000000;fill:#eab308;stroke-width:1.04731;-inkscape-stroke:none"
         d="m 0,130.31248 v 4.23333 h 101.6 v -4.23333 z"
         id="path1680-0" />
    </g>
  </g>
</svg>
